<svg width="156" height="24" viewBox="0 0 156 24" fill="none" xmlns="http://www.w3.org/2000/svg">
<g clip-path="url(#clip0)">
<path d="M66.764 6.18148L64.871 17.8415H61.663L61.838 16.6925C60.902 17.5745 59.726 18.0145 58.31 18.0145C57.4 18.0145 56.554 17.8055 55.773 17.3865C54.992 16.9675 54.36 16.3645 53.876 15.5765C53.392 14.7895 53.13 13.8605 53.091 12.7915C53.044 11.5055 53.287 10.3465 53.82 9.31348C54.353 8.27948 55.1 7.47048 56.062 6.88548C57.022 6.30048 58.095 6.00848 59.28 6.00848C61.072 6.00848 62.358 6.59348 63.137 7.76348L63.383 6.18148H66.764ZM59.249 15.2185C59.913 15.2185 60.5 15.0565 61.008 14.7315C61.516 14.4065 61.904 13.9545 62.172 13.3765C62.44 12.7985 62.56 12.1345 62.533 11.3825C62.504 10.5885 62.246 9.95948 61.759 9.49748C61.273 9.03548 60.611 8.80348 59.772 8.80348C59.108 8.80348 58.521 8.96648 58.013 9.29148C57.505 9.61648 57.117 10.0685 56.849 10.6455C56.581 11.2235 56.461 11.8885 56.488 12.6405C56.517 13.4345 56.775 14.0635 57.262 14.5255C57.748 14.9875 58.411 15.2185 59.249 15.2185ZM81.458 6.18148L74.646 17.8415H71.156L68.151 6.18148H71.489L73.47 14.1355L78.077 6.18148H81.458ZM89.384 6.00848C90.294 6.00848 91.144 6.21748 91.932 6.63648C92.72 7.05548 93.357 7.65848 93.84 8.44648C94.325 9.23348 94.586 10.1615 94.625 11.2315C94.672 12.5175 94.429 13.6765 93.896 14.7095C93.363 15.7425 92.616 16.5515 91.655 17.1365C90.694 17.7225 89.613 18.0145 88.415 18.0145C86.637 18.0145 85.359 17.4375 84.58 16.2805L83.642 22.0465H80.261L82.845 6.18148H86.053L85.857 7.33048C86.793 6.44848 87.968 6.00848 89.384 6.00848ZM87.922 15.2185C88.587 15.2185 89.173 15.0565 89.681 14.7315C90.19 14.4065 90.578 13.9545 90.846 13.3765C91.114 12.7985 91.234 12.1345 91.206 11.3825C91.177 10.5885 90.919 9.95948 90.433 9.49748C89.946 9.03548 89.284 8.80348 88.446 8.80348C87.796 8.80348 87.217 8.96648 86.709 9.29148C86.2 9.61648 85.812 10.0685 85.544 10.6455C85.276 11.2235 85.156 11.8885 85.183 12.6405C85.213 13.4345 85.467 14.0635 85.946 14.5255C86.425 14.9875 87.084 15.2185 87.922 15.2185ZM108.32 11.1445C108.339 11.6785 108.296 12.2715 108.19 12.9215H99.26C99.433 14.5105 100.467 15.3055 102.36 15.3055C102.952 15.3055 103.516 15.2115 104.051 15.0235C104.586 14.8355 105.049 14.5685 105.441 14.2225L106.931 16.4545C106.3 16.9745 105.57 17.3645 104.741 17.6245C103.913 17.8845 103.036 18.0145 102.112 18.0145C100.913 18.0145 99.854 17.8015 98.935 17.3755C98.016 16.9495 97.301 16.3385 96.787 15.5445C96.274 14.7495 95.999 13.8325 95.961 12.7915C95.914 11.5055 96.164 10.3465 96.712 9.31348C97.259 8.27948 98.042 7.47048 99.061 6.88548C100.08 6.30048 101.254 6.00848 102.583 6.00848C103.71 6.00848 104.697 6.21748 105.543 6.63648C106.389 7.05548 107.054 7.65548 107.538 8.43548C108.021 9.21548 108.282 10.1185 108.32 11.1445ZM102.524 8.54348C101.73 8.54348 101.065 8.75648 100.532 9.18248C99.998 9.60948 99.63 10.1985 99.426 10.9495H105.213C105.186 10.1985 104.929 9.60948 104.444 9.18248C103.959 8.75648 103.319 8.54348 102.524 8.54348ZM114.387 7.56848C114.873 7.01948 115.469 6.62148 116.175 6.37648C116.881 6.13048 117.718 6.00848 118.686 6.00848L118.194 9.12848C117.788 9.10048 117.527 9.08548 117.412 9.08548C116.386 9.08548 115.575 9.33848 114.979 9.84348C114.384 10.3495 113.997 11.1375 113.82 12.2065L112.898 17.8415H109.518L111.41 6.18148H114.618L114.387 7.56848ZM135.288 6.00848C136.559 6.00848 137.583 6.35148 138.36 7.03748C139.136 7.72348 139.547 8.69548 139.593 9.95248C139.61 10.4145 139.577 10.8915 139.494 11.3825L138.451 17.8415H135.07L136.078 11.6215C136.125 11.3325 136.143 11.0365 136.132 10.7325C136.111 10.1405 135.939 9.69248 135.617 9.38848C135.296 9.08548 134.831 8.93348 134.224 8.93348C132.591 8.93348 131.608 9.90848 131.275 11.8595L130.302 17.8415H126.921L127.929 11.6215C127.976 11.3325 127.994 11.0435 127.984 10.7545C127.962 10.1615 127.79 9.71048 127.469 9.39948C127.147 9.08948 126.682 8.93348 126.075 8.93348C124.442 8.93348 123.453 9.92348 123.106 11.9035L122.153 17.8415H118.772L120.665 6.18148H123.872L123.657 7.39548C124.634 6.47048 125.838 6.00848 127.269 6.00848C128.078 6.00848 128.803 6.17048 129.443 6.49548C130.083 6.82048 130.573 7.29348 130.914 7.91548C131.455 7.29348 132.096 6.82048 132.835 6.49548C133.574 6.17048 134.392 6.00848 135.288 6.00848Z" fill="white"/>
<path fill-rule="evenodd" clip-rule="evenodd" d="M17.872 23.7565C15.997 23.7565 14.476 22.2365 14.476 20.3595C14.476 20.2415 14.482 20.1235 14.494 20.0085L15.602 3.9435L15.613 3.6675C15.613 1.6915 14.012 0.0834961 12.035 0.0834961C17.916 0.0834961 23.29 0.0834961 29.171 0.0834961C31.57 0.0834961 36.813 0.472496 36.97 5.3215C37.127 10.1715 33.327 11.1315 33.327 11.1315C33.327 11.1315 38.213 12.2135 37.632 17.0815C37.051 21.9495 33.081 23.7565 30.16 23.7565C26.06 23.7565 21.973 23.7565 17.872 23.7565ZM26.686 13.8265H23.221L22.947 17.7945L22.94 17.9425C22.94 18.8625 23.686 19.6085 24.607 19.6085H27.03C27.03 19.6085 28.746 19.4405 28.78 16.6025C28.816 13.7635 26.686 13.8265 26.686 13.8265ZM26.572 4.2325H23.883L23.626 7.9535L23.62 8.0945C23.62 9.0155 24.367 9.7615 25.287 9.7615H26.901C26.901 9.7615 28.542 9.6005 28.576 6.8865C28.608 4.1725 26.572 4.2325 26.572 4.2325Z" fill="white"/>
<path fill-rule="evenodd" clip-rule="evenodd" d="M11.903 17.8385C11.903 14.5695 9.25298 11.9205 5.98398 11.9205C2.71598 11.9205 0.065979 14.5695 0.065979 17.8385C0.065979 21.1065 2.71598 23.7565 5.98398 23.7565C9.25298 23.7565 11.903 21.1065 11.903 17.8385Z" fill="#F6175A"/>
<path fill-rule="evenodd" clip-rule="evenodd" d="M9.42995 3.7235C10.397 9.2605 11.359 14.7985 12.328 20.3355C12.74 22.2725 14.448 23.7295 16.501 23.7565H23.393C22.046 23.2055 21.03 21.9955 20.761 20.5285L17.832 3.7235C17.505 1.6725 15.739 0.102496 13.601 0.0834961H5.19995C7.33795 0.102496 9.10395 1.6725 9.42995 3.7235Z" fill="#F6175A"/>
<path fill-rule="evenodd" clip-rule="evenodd" d="M20.761 20.5285C21.03 21.9955 22.046 23.2055 23.393 23.7565H17.873C15.997 23.7565 14.476 22.2355 14.476 20.3595C14.476 20.2415 14.482 20.1235 14.494 20.0085L15.603 3.9425L15.613 3.6685C15.613 1.6915 14.012 0.0834961 12.035 0.0834961H13.601C15.739 0.102496 17.505 1.6725 17.832 3.7235L20.761 20.5285Z" fill="#B20A38"/>
</g>
<defs>
<clipPath id="clip0">
<rect width="156" height="24" fill="white"/>
</clipPath>
</defs>
</svg>
