<svg width="130" height="120" viewBox="0 0 130 120" fill="none" xmlns="http://www.w3.org/2000/svg">
<g>
<path d="M6.54001 98.5734H2.36101L1.53701 100.508H-0.0629883L3.69801 92.1494H5.22601L8.99901 100.508H7.37601L6.54001 98.5734ZM6.02601 97.3554L4.45001 93.7014L2.88601 97.3554H6.02601ZM14.896 97.1884C15.684 97.4274 16.078 97.9364 16.078 98.7164C16.078 99.2904 15.863 99.7314 15.433 100.042C15.004 100.352 14.367 100.508 13.523 100.508H10.275V94.1314H13.392C14.172 94.1314 14.781 94.2744 15.218 94.5614C15.656 94.8484 15.875 95.2544 15.875 95.7794C15.875 96.1064 15.79 96.3884 15.619 96.6274C15.447 96.8664 15.207 97.0534 14.896 97.1884ZM11.696 96.7944H13.26C14.032 96.7944 14.419 96.5274 14.419 95.9944C14.419 95.4774 14.032 95.2184 13.26 95.2184H11.696V96.7944ZM13.403 99.4214C14.224 99.4214 14.633 99.1544 14.633 98.6214C14.633 98.3424 14.538 98.1334 14.347 97.9944C14.156 97.8554 13.857 97.7854 13.451 97.7854H11.696V99.4214H13.403ZM22.882 95.3974H20.649V100.508H19.157V95.3974H16.912V94.1314H22.882V95.3974ZM26.7 100.591C26.056 100.591 25.474 100.452 24.957 100.173C24.44 99.8954 24.036 99.5064 23.745 99.0094C23.455 98.5124 23.31 97.9484 23.31 97.3204C23.31 96.6914 23.455 96.1294 23.745 95.6364C24.036 95.1424 24.44 94.7564 24.957 94.4784C25.474 94.1994 26.056 94.0604 26.7 94.0604C27.353 94.0604 27.938 94.1994 28.456 94.4784C28.973 94.7564 29.377 95.1424 29.668 95.6364C29.958 96.1294 30.104 96.6914 30.104 97.3204C30.104 97.9484 29.958 98.5124 29.668 99.0094C29.377 99.5064 28.973 99.8954 28.456 100.173C27.938 100.452 27.353 100.591 26.7 100.591ZM26.7 99.3144C27.25 99.3144 27.704 99.1304 28.062 98.7644C28.42 98.3984 28.599 97.9164 28.599 97.3204C28.599 96.7224 28.42 96.2414 28.062 95.8754C27.704 95.5084 27.25 95.3254 26.7 95.3254C26.151 95.3254 25.699 95.5084 25.345 95.8754C24.991 96.2414 24.814 96.7224 24.814 97.3204C24.814 97.9164 24.991 98.3984 25.345 98.7644C25.699 99.1304 26.151 99.3144 26.7 99.3144ZM36.358 97.1884C37.146 97.4274 37.54 97.9364 37.54 98.7164C37.54 99.2904 37.325 99.7314 36.895 100.042C36.466 100.352 35.829 100.508 34.985 100.508H31.737V94.1314H34.854C35.634 94.1314 36.243 94.2744 36.68 94.5614C37.118 94.8484 37.337 95.2544 37.337 95.7794C37.337 96.1064 37.252 96.3884 37.081 96.6274C36.909 96.8664 36.669 97.0534 36.358 97.1884ZM33.158 96.7944H34.722C35.494 96.7944 35.881 96.5274 35.881 95.9944C35.881 95.4774 35.494 95.2184 34.722 95.2184H33.158V96.7944ZM34.865 99.4214C35.686 99.4214 36.095 99.1544 36.095 98.6214C36.095 98.3424 36 98.1334 35.809 97.9944C35.618 97.8554 35.319 97.7854 34.913 97.7854H33.158V99.4214H34.865ZM42.135 100.591C41.49 100.591 40.909 100.452 40.391 100.173C39.874 99.8954 39.47 99.5064 39.18 99.0094C38.889 98.5124 38.744 97.9484 38.744 97.3204C38.744 96.6914 38.889 96.1294 39.18 95.6364C39.47 95.1424 39.874 94.7564 40.391 94.4784C40.909 94.1994 41.49 94.0604 42.135 94.0604C42.788 94.0604 43.373 94.1994 43.89 94.4784C44.408 94.7564 44.812 95.1424 45.102 95.6364C45.393 96.1294 45.538 96.6914 45.538 97.3204C45.538 97.9484 45.393 98.5124 45.102 99.0094C44.812 99.5064 44.408 99.8954 43.89 100.173C43.373 100.452 42.788 100.591 42.135 100.591ZM42.135 99.3144C42.684 99.3144 43.138 99.1304 43.496 98.7644C43.854 98.3984 44.033 97.9164 44.033 97.3204C44.033 96.7224 43.854 96.2414 43.496 95.8754C43.138 95.5084 42.684 95.3254 42.135 95.3254C41.586 95.3254 41.134 95.5084 40.78 95.8754C40.425 96.2414 40.248 96.7224 40.248 97.3204C40.248 97.9164 40.425 98.3984 40.78 98.7644C41.134 99.1304 41.586 99.3144 42.135 99.3144ZM49.822 97.9524H48.664V100.508H47.172V94.1314H48.664V96.7104H49.858L51.745 94.1314H53.345L51.028 97.2004L53.5 100.508H51.745L49.822 97.9524ZM58.214 97.1884C58.612 97.2994 58.921 97.4814 59.139 97.7314C59.359 97.9824 59.468 98.2834 59.468 98.6334C59.468 99.0234 59.337 99.3674 59.074 99.6664C58.811 99.9644 58.449 100.197 57.987 100.364C57.526 100.531 57 100.615 56.411 100.615C55.918 100.615 55.436 100.557 54.966 100.442C54.497 100.327 54.071 100.161 53.689 99.9464L54.119 98.8364C54.429 99.0114 54.779 99.1464 55.169 99.2424C55.559 99.3374 55.95 99.3854 56.34 99.3854C56.841 99.3854 57.233 99.3084 57.516 99.1524C57.798 98.9974 57.939 98.7844 57.939 98.5134C57.939 98.2674 57.83 98.0764 57.611 97.9414C57.392 97.8054 57.084 97.7374 56.686 97.7374H55.444V96.7344H56.566C56.941 96.7344 57.233 96.6714 57.444 96.5434C57.655 96.4164 57.76 96.2374 57.76 96.0064C57.76 95.7754 57.633 95.5924 57.378 95.4574C57.123 95.3214 56.773 95.2544 56.327 95.2544C55.691 95.2544 55.018 95.4094 54.31 95.7194L53.927 94.6214C54.764 94.2314 55.607 94.0364 56.459 94.0364C57 94.0364 57.486 94.1094 57.916 94.2574C58.346 94.4044 58.682 94.6114 58.925 94.8784C59.167 95.1444 59.289 95.4494 59.289 95.7914C59.289 96.1014 59.194 96.3784 59.002 96.6214C58.811 96.8644 58.549 97.0534 58.214 97.1884ZM63.562 94.0604C64.501 94.0604 65.219 94.2854 65.717 94.7344C66.214 95.1844 66.463 95.8634 66.463 96.7704V100.508H65.054V99.7314C64.871 100.01 64.61 100.223 64.272 100.37C63.933 100.517 63.526 100.591 63.048 100.591C62.571 100.591 62.153 100.509 61.794 100.346C61.436 100.183 61.159 99.9564 60.964 99.6664C60.769 99.3754 60.672 99.0474 60.672 98.6814C60.672 98.1084 60.885 97.6484 61.311 97.3014C61.736 96.9554 62.407 96.7824 63.323 96.7824H64.971V96.6864C64.971 96.2414 64.837 95.8984 64.57 95.6604C64.304 95.4214 63.908 95.3014 63.382 95.3014C63.024 95.3014 62.672 95.3574 62.326 95.4694C61.979 95.5804 61.687 95.7354 61.448 95.9344L60.863 94.8484C61.197 94.5934 61.599 94.3984 62.069 94.2634C62.538 94.1274 63.036 94.0604 63.562 94.0604ZM63.359 99.5044C63.733 99.5044 64.065 99.4194 64.356 99.2484C64.646 99.0774 64.851 98.8324 64.971 98.5134V97.7734H63.43C62.571 97.7734 62.14 98.0564 62.14 98.6214C62.14 98.8914 62.248 99.1064 62.463 99.2664C62.678 99.4254 62.976 99.5044 63.359 99.5044ZM74.258 94.1314V100.508H72.765V95.3974H70.377L70.317 96.6634C70.278 97.5074 70.2 98.2134 70.085 98.7824C69.969 99.3514 69.774 99.8014 69.5 100.131C69.225 100.462 68.849 100.627 68.371 100.627C68.148 100.627 67.874 100.583 67.547 100.495L67.619 99.2424C67.73 99.2664 67.826 99.2784 67.905 99.2784C68.208 99.2784 68.435 99.1564 68.586 98.9134C68.737 98.6714 68.835 98.3804 68.879 98.0424C68.922 97.7044 68.96 97.2204 68.992 96.5914L69.1 94.1314H74.258ZM79.533 96.2334C80.345 96.2334 80.966 96.4164 81.396 96.7824C81.826 97.1484 82.041 97.6664 82.041 98.3344C82.041 99.0354 81.804 99.5764 81.331 99.9584C80.857 100.341 80.186 100.528 79.318 100.52L76.429 100.508V94.1314H77.921V96.2214L79.533 96.2334ZM82.865 94.1314H84.358V100.508H82.865V94.1314ZM79.187 99.4214C79.625 99.4294 79.959 99.3374 80.19 99.1464C80.421 98.9554 80.537 98.6774 80.537 98.3114C80.537 97.9524 80.425 97.6904 80.202 97.5224C79.979 97.3554 79.641 97.2684 79.187 97.2604L77.921 97.2484V99.4094L79.187 99.4214ZM8.40301 107.874V116.233H6.87401V109.188H2.54001V116.233H1.01101V107.874H8.40301ZM14.287 109.785C14.908 109.785 15.463 109.92 15.953 110.191C16.442 110.461 16.826 110.843 17.105 111.337C17.383 111.831 17.523 112.4 17.523 113.045C17.523 113.689 17.383 114.261 17.105 114.758C16.826 115.256 16.442 115.64 15.953 115.91C15.463 116.181 14.908 116.316 14.287 116.316C13.427 116.316 12.746 116.03 12.245 115.456V118.549H10.752V109.856H12.173V110.692C12.42 110.39 12.725 110.163 13.087 110.012C13.449 109.86 13.849 109.785 14.287 109.785ZM14.12 115.039C14.669 115.039 15.121 114.855 15.475 114.489C15.829 114.123 16.006 113.641 16.006 113.045C16.006 112.447 15.829 111.966 15.475 111.6C15.121 111.233 14.669 111.051 14.12 111.051C13.761 111.051 13.439 111.132 13.152 111.295C12.866 111.458 12.639 111.691 12.472 111.994C12.305 112.296 12.221 112.647 12.221 113.045C12.221 113.443 12.305 113.793 12.472 114.095C12.639 114.398 12.866 114.631 13.152 114.794C13.439 114.957 13.761 115.039 14.12 115.039ZM19.168 109.856H20.661V114.059L24.183 109.856H25.544V116.233H24.052V112.029L20.541 116.233H19.168V109.856ZM30.366 113.677H29.208V116.233H27.715V109.856H29.208V112.435H30.402L32.289 109.856H33.888L31.572 112.925L34.044 116.233H32.289L30.366 113.677ZM37.516 109.785C38.456 109.785 39.174 110.01 39.671 110.459C40.169 110.909 40.418 111.588 40.418 112.495V116.233H39.009V115.456C38.826 115.735 38.565 115.948 38.227 116.095C37.888 116.243 37.48 116.316 37.003 116.316C36.525 116.316 36.107 116.235 35.749 116.071C35.391 115.908 35.114 115.681 34.919 115.391C34.724 115.1 34.627 114.772 34.627 114.406C34.627 113.833 34.84 113.373 35.266 113.027C35.691 112.68 36.362 112.507 37.278 112.507H38.925V112.412C38.925 111.966 38.792 111.624 38.525 111.385C38.259 111.146 37.863 111.026 37.337 111.026C36.979 111.026 36.627 111.082 36.28 111.194C35.934 111.305 35.642 111.46 35.403 111.659L34.818 110.573C35.152 110.318 35.554 110.123 36.024 109.988C36.493 109.852 36.991 109.785 37.516 109.785ZM37.313 115.23C37.688 115.23 38.02 115.144 38.31 114.973C38.601 114.802 38.806 114.557 38.925 114.239V113.498H37.385C36.525 113.498 36.095 113.781 36.095 114.346C36.095 114.617 36.203 114.832 36.418 114.991C36.633 115.15 36.931 115.23 37.313 115.23ZM48.702 116.233V112.006L46.553 115.564H45.908L43.795 111.994V116.233H42.434V109.856H43.998L46.266 113.844L48.643 109.856H50.04L50.052 116.233H48.702ZM55.423 111.958C56.235 111.958 56.857 112.141 57.291 112.507C57.725 112.873 57.942 113.391 57.942 114.059C57.942 114.76 57.703 115.301 57.226 115.684C56.748 116.066 56.075 116.253 55.208 116.245L52.223 116.233V109.856H53.715V111.946L55.423 111.958ZM55.076 115.146C55.514 115.154 55.849 115.063 56.079 114.871C56.31 114.68 56.426 114.402 56.426 114.036C56.426 113.677 56.314 113.415 56.091 113.248C55.868 113.08 55.53 112.993 55.076 112.985L53.715 112.973V115.134L55.076 115.146ZM64.352 109.856V116.233H63.015V114.31H61.331L60.03 116.233H58.429L59.934 114.107C59.472 113.948 59.12 113.703 58.877 113.373C58.634 113.042 58.513 112.635 58.513 112.149C58.513 111.416 58.772 110.851 59.289 110.453C59.807 110.055 60.519 109.856 61.426 109.856H64.352ZM61.474 111.11C60.511 111.11 60.03 111.472 60.03 112.197C60.03 112.913 60.495 113.271 61.426 113.271H63.015V111.11H61.474Z" fill="#F6175A"/>
<path d="M20.409 59.0525L17.583 76.4615H12.794L13.055 74.7465C11.658 76.0625 9.90204 76.7205 7.78804 76.7205C6.42904 76.7205 5.16604 76.4075 4.00004 75.7815C2.83404 75.1565 1.88904 74.2555 1.16704 73.0805C0.444039 71.9045 0.0540386 70.5185 -0.00496136 68.9225C-0.0739614 67.0025 0.288039 65.2705 1.08404 63.7285C1.88004 62.1865 2.99504 60.9775 4.43004 60.1045C5.86504 59.2305 7.46704 58.7935 9.23604 58.7935C11.911 58.7935 13.831 59.6675 14.995 61.4145L15.361 59.0525H20.409ZM9.18904 72.5465C10.181 72.5465 11.056 72.3035 11.815 71.8185C12.575 71.3325 13.154 70.6585 13.554 69.7955C13.953 68.9325 14.133 67.9405 14.092 66.8185C14.049 65.6325 13.664 64.6935 12.937 64.0035C12.211 63.3135 11.223 62.9685 9.97104 62.9685C8.97904 62.9685 8.10304 63.2105 7.34404 63.6965C6.58504 64.1815 6.00604 64.8555 5.60604 65.7185C5.20604 66.5815 5.02704 67.5735 5.06804 68.6955C5.11104 69.8825 5.49604 70.8205 6.22204 71.5105C6.94804 72.2005 7.93704 72.5465 9.18904 72.5465ZM42.348 59.0525L32.176 76.4615H26.967L22.48 59.0525H27.463L30.421 70.9285L37.3 59.0525H42.348ZM54.182 58.7935C55.541 58.7935 56.809 59.1065 57.986 59.7325C59.163 60.3575 60.113 61.2585 60.835 62.4345C61.558 63.6105 61.948 64.9955 62.007 66.5925C62.077 68.5125 61.714 70.2435 60.918 71.7855C60.122 73.3285 59.007 74.5365 57.572 75.4105C56.137 76.2835 54.524 76.7205 52.734 76.7205C50.08 76.7205 48.172 75.8575 47.009 74.1315L45.608 82.7385H40.56L44.419 59.0525H49.208L48.915 60.7675C50.312 59.4515 52.068 58.7935 54.182 58.7935ZM51.999 72.5465C52.991 72.5465 53.867 72.3035 54.626 71.8185C55.384 71.3325 55.964 70.6585 56.364 69.7955C56.764 68.9325 56.943 67.9405 56.902 66.8185C56.859 65.6325 56.474 64.6935 55.748 64.0035C55.021 63.3135 54.033 62.9685 52.782 62.9685C51.811 62.9685 50.946 63.2105 50.187 63.6965C49.428 64.1815 48.849 64.8555 48.449 65.7185C48.049 66.5815 47.869 67.5735 47.91 68.6955C47.954 69.8825 48.333 70.8205 49.049 71.5105C49.764 72.2005 50.748 72.5465 51.999 72.5465ZM82.452 66.4625C82.481 67.2615 82.416 68.1455 82.258 69.1165H68.926C69.186 71.4895 70.728 72.6755 73.554 72.6755C74.439 72.6755 75.28 72.5355 76.079 72.2545C76.878 71.9745 77.57 71.5755 78.155 71.0575L80.38 74.3905C79.437 75.1675 78.348 75.7495 77.111 76.1385C75.874 76.5265 74.564 76.7205 73.184 76.7205C71.393 76.7205 69.813 76.4025 68.441 75.7655C67.07 75.1295 66.001 74.2185 65.235 73.0315C64.469 71.8455 64.057 70.4755 64 68.9225C63.93 67.0025 64.304 65.2705 65.121 63.7285C65.938 62.1865 67.108 60.9775 68.629 60.1045C70.15 59.2305 71.903 58.7935 73.888 58.7935C75.571 58.7935 77.043 59.1065 78.307 59.7325C79.57 60.3575 80.563 61.2535 81.285 62.4175C82.007 63.5825 82.396 64.9315 82.452 66.4625ZM73.8 62.5795C72.613 62.5795 71.622 62.8975 70.825 63.5345C70.029 64.1705 69.479 65.0495 69.174 66.1715H77.814C77.773 65.0495 77.39 64.1705 76.666 63.5345C75.942 62.8975 74.986 62.5795 73.8 62.5795ZM91.512 61.1235C92.236 60.3045 93.127 59.7105 94.181 59.3445C95.235 58.9775 96.485 58.7935 97.93 58.7935L97.195 63.4535C96.589 63.4105 96.2 63.3885 96.027 63.3885C94.495 63.3885 93.285 63.7665 92.396 64.5215C91.507 65.2765 90.93 66.4515 90.665 68.0485L89.289 76.4615H84.241L87.067 59.0525H91.857L91.512 61.1235ZM122.717 58.7935C124.615 58.7935 126.145 59.3065 127.304 60.3305C128.463 61.3555 129.077 62.8065 129.145 64.6835C129.17 65.3735 129.121 66.0855 128.997 66.8185L127.44 76.4615H122.392L123.897 67.1745C123.968 66.7435 123.995 66.3015 123.978 65.8475C123.946 64.9635 123.689 64.2945 123.209 63.8415C122.729 63.3885 122.035 63.1625 121.129 63.1625C118.692 63.1625 117.224 64.6185 116.727 67.5305L115.273 76.4615H110.225L111.73 67.1745C111.801 66.7435 111.828 66.3115 111.812 65.8805C111.78 64.9955 111.524 64.3215 111.043 63.8575C110.562 63.3945 109.868 63.1625 108.962 63.1625C106.525 63.1625 105.047 64.6395 104.53 67.5955L103.106 76.4615H98.058L100.884 59.0525H105.674L105.351 60.8645C106.811 59.4845 108.609 58.7935 110.744 58.7935C111.952 58.7935 113.035 59.0365 113.991 59.5225C114.947 60.0075 115.679 60.7135 116.188 61.6415C116.995 60.7135 117.951 60.0075 119.055 59.5225C120.159 59.0365 121.38 58.7935 122.717 58.7935Z" fill="white"/>
<path d="M26.586 35.3465C23.785 35.3465 21.514 33.0765 21.514 30.2745C21.514 30.0985 21.523 29.9225 21.542 29.7505L23.196 5.76349L23.213 5.35249C23.213 2.40149 20.822 0.000488281 17.87 0.000488281C26.651 0.000488281 34.675 0.000488281 43.455 0.000488281C47.037 0.000488281 54.866 0.581488 55.1 7.82149C55.335 15.0625 49.66 16.4965 49.66 16.4965C49.66 16.4965 56.956 18.1125 56.088 25.3795C55.221 32.6475 49.293 35.3465 44.933 35.3465C38.811 35.3465 32.708 35.3465 26.586 35.3465ZM39.745 20.5195H34.571L34.162 26.4445L34.153 26.6645C34.153 28.0395 35.266 29.1525 36.641 29.1525H40.258C40.258 29.1525 42.82 28.9025 42.872 24.6645C42.925 20.4255 39.745 20.5195 39.745 20.5195ZM39.575 6.19549H35.56L35.177 11.7515L35.167 11.9625C35.167 13.3365 36.283 14.4505 37.656 14.4505H40.065C40.065 14.4505 42.516 14.2105 42.567 10.1575C42.615 6.10649 39.575 6.19549 39.575 6.19549Z" fill="white"/>
<path fill-rule="evenodd" clip-rule="evenodd" d="M17.672 26.5095C17.672 21.6295 13.717 17.6735 8.836 17.6735C3.956 17.6735 0 21.6295 0 26.5095C0 31.3905 3.956 35.3465 8.836 35.3465C13.717 35.3465 17.672 31.3905 17.672 26.5095Z" fill="#F6175A"/>
<path fill-rule="evenodd" clip-rule="evenodd" d="M13.981 5.43549C15.424 13.7025 16.861 21.9715 18.308 30.2385C18.923 33.1305 21.473 35.3065 24.539 35.3465H34.829C32.818 34.5245 31.3 32.7175 30.899 30.5265L26.525 5.43549C26.038 2.37449 23.4 0.0294883 20.208 0.000488281H7.66498C10.857 0.0294883 13.494 2.37449 13.981 5.43549Z" fill="#F6175A"/>
<path fill-rule="evenodd" clip-rule="evenodd" d="M30.899 30.5265C31.3 32.7175 32.818 34.5245 34.829 35.3465H26.586C23.785 35.3465 21.515 33.0755 21.515 30.2745C21.515 30.0975 21.524 29.9225 21.541 29.7505L23.197 5.76349L23.213 5.35249C23.213 2.40149 20.821 0.000488281 17.87 0.000488281H20.208C23.4 0.0294883 26.038 2.37449 26.525 5.43549L30.899 30.5265Z" fill="#B20A38"/>
</g>
</svg>
