<svg width="16" height="16" viewBox="0 0 16 16" fill="none" xmlns="http://www.w3.org/2000/svg">
<g clip-path="url(#clip0)">
<path d="M12.3671 8.50144C12.3469 6.47516 14.0196 5.50338 14.0943 5.45509C13.1545 4.07978 11.6904 3.89138 11.1687 3.86959C9.92274 3.74344 8.73752 4.60316 8.10518 4.60316C7.47443 4.60316 6.49865 3.88825 5.4653 3.90703C4.10724 3.92722 2.85502 4.69669 2.15574 5.91297C0.744739 8.36141 1.7944 11.9886 3.16965 13.9743C3.84165 14.9463 4.64296 16.038 5.69505 15.999C6.70821 15.9586 7.09133 15.3434 8.31624 15.3434C9.54111 15.3434 9.88546 15.999 10.9576 15.9789C12.0479 15.9586 12.7386 14.9883 13.406 14.0133C14.1776 12.8857 14.4954 11.794 14.5141 11.7379C14.4899 11.7269 12.3882 10.9217 12.3671 8.50144ZM10.3525 2.55503C10.9109 1.87756 11.2878 0.937656 11.185 0C10.3806 0.03275 9.40568 0.535781 8.82858 1.21172C8.31077 1.81134 7.85749 2.76837 7.97896 3.68728C8.8769 3.75734 9.79349 3.23097 10.3525 2.55503Z" fill="#F6175A"/>
</g>
<defs>
<clipPath id="clip0">
<rect width="16" height="16" fill="white"/>
</clipPath>
</defs>
</svg>
