<svg width="16" height="7" viewBox="0 0 16 7" fill="none" xmlns="http://www.w3.org/2000/svg">
<path fill-rule="evenodd" clip-rule="evenodd" d="M15.8531 3.82582C15.9469 3.73204 15.9996 3.60481 15.9996 3.47214C15.9996 3.33947 15.9469 3.21224 15.8531 3.11847L12.8789 0.146323C12.6835 -0.0488707 12.3669 -0.0487603 12.1718 0.14657C11.9766 0.3419 11.9767 0.658483 12.172 0.853677L14.3206 3.00073L0.5 3.00073C0.223858 3.00073 0 3.22459 0 3.50073C0 3.77688 0.223858 4.00073 0.5 4.00073L14.2633 4.00073L12.172 6.09061C11.9767 6.2858 11.9766 6.60239 12.1718 6.79772C12.3669 6.99305 12.6835 6.99316 12.8789 6.79796L15.8531 3.82582Z" fill="#F6175A"/>
</svg>
