<svg width="16" height="16" viewBox="0 0 16 16" fill="none" xmlns="http://www.w3.org/2000/svg">
<path fill-rule="evenodd" clip-rule="evenodd" d="M11.0278 4C11.0278 5.65685 9.68469 7 8.02783 7C6.37098 7 5.02783 5.65685 5.02783 4C5.02783 2.34315 6.37098 1 8.02783 1C9.68469 1 11.0278 2.34315 11.0278 4ZM12.0278 4C12.0278 6.20914 10.237 8 8.02783 8C5.81869 8 4.02783 6.20914 4.02783 4C4.02783 1.79086 5.81869 0 8.02783 0C10.237 0 12.0278 1.79086 12.0278 4ZM6.97883 10.022H9.02056C11.4751 10.022 12.9354 10.7754 13.787 11.6771C14.6559 12.5973 15 13.787 15 14.8329C15 14.9171 14.9734 14.9731 14.9537 15H1.04635C1.02668 14.9731 1 14.9171 1 14.8329C1 13.8046 1.36587 12.6117 2.2565 11.6825C3.12983 10.7714 4.59638 10.022 6.97883 10.022ZM6.97883 9.022H9.02056C14.3638 9.022 16 12.3345 16 14.8329C16 15.4775 15.5523 16 15 16H1C0.447715 16 0 15.4775 0 14.8329C0 12.3345 1.76593 9.022 6.97883 9.022Z" fill="#F6175A"/>
</svg>
