<svg width="16" height="16" viewBox="0 0 16 16" fill="none" xmlns="http://www.w3.org/2000/svg">
<path fill-rule="evenodd" clip-rule="evenodd" d="M0.85453 0.146447C0.659268 -0.0488155 0.342685 -0.0488155 0.147423 0.146447C-0.047839 0.341709 -0.047839 0.658291 0.147423 0.853553L7.29355 7.99968L0.153876 15.1394C-0.0413864 15.3346 -0.0413866 15.6512 0.153876 15.8465C0.349138 16.0417 0.66572 16.0417 0.860982 15.8465L8.00066 8.70679L15.1403 15.8465C15.3356 16.0417 15.6522 16.0417 15.8474 15.8465C16.0427 15.6512 16.0427 15.3346 15.8474 15.1394L8.70776 7.99968L15.8539 0.853553C16.0492 0.658291 16.0492 0.341709 15.8539 0.146447C15.6586 -0.0488155 15.342 -0.0488155 15.1468 0.146447L8.00066 7.29257L0.85453 0.146447Z" fill="#F6175A"/>
</svg>
