<svg width="24" height="24" viewBox="0 0 24 24" fill="none" xmlns="http://www.w3.org/2000/svg">
<path fill-rule="evenodd" clip-rule="evenodd" d="M4.85355 4.14645C4.65829 3.95118 4.34171 3.95118 4.14645 4.14645C3.95118 4.34171 3.95118 4.65829 4.14645 4.85355L11.2926 11.9997L4.1529 19.1394C3.95764 19.3346 3.95764 19.6512 4.1529 19.8465C4.34816 20.0417 4.66474 20.0417 4.86001 19.8465L11.9997 12.7068L19.1394 19.8465C19.3346 20.0417 19.6512 20.0417 19.8465 19.8465C20.0417 19.6512 20.0417 19.3346 19.8465 19.1394L12.7068 11.9997L19.8529 4.85355C20.0482 4.65829 20.0482 4.34171 19.8529 4.14645C19.6577 3.95118 19.3411 3.95118 19.1458 4.14645L11.9997 11.2926L4.85355 4.14645Z" fill="white"/>
</svg>
