<svg width="24" height="24" viewBox="0 0 24 24" fill="none" xmlns="http://www.w3.org/2000/svg">
<path d="M19.4825 12C19.2278 12 19.0023 12.248 19.0023 12.4805V16.2874C19.0023 17.3228 18.1596 18.0098 17.0289 18.0098H6.97114C5.83701 18.0098 5.00732 17.3197 5.00732 16.2874V12.4185C5.00732 12.186 4.77033 12 4.51566 12C4.261 12 4 12.186 4 12.4185V16.2874C4 17.7848 5.33447 19 6.97114 19H17.0289C18.6689 19 20 17.7817 20 16.2874V12.4805C20 12.2511 19.7372 12 19.4825 12Z" fill="#F6175A"/>
<path d="M11.6519 15.94C11.7478 16.0339 11.8768 16.0844 12.0021 16.0844C12.1274 16.0844 12.2565 16.0375 12.3523 15.94L15.5151 12.8442C15.7105 12.653 15.7105 12.3463 15.5151 12.1551C15.3198 11.9638 15.0064 11.9638 14.8111 12.1551L12.4998 14.421V4.53822C12.4998 4.26761 12.2786 4.05112 12.0021 4.05112C11.7256 4.05112 11.5045 4.26761 11.5045 4.53822V14.421L9.18948 12.1551C8.9941 11.9638 8.68077 11.9638 8.4854 12.1551C8.29002 12.3463 8.29002 12.653 8.4854 12.8442L11.6519 15.94Z" fill="#F6175A"/>
</svg>
