<svg width="35" height="35" viewBox="0 0 35 35" fill="none" xmlns="http://www.w3.org/2000/svg">
<g clip-path="url(#clip0)">
<path d="M17.4993 26.057C17.2091 26.057 16.9736 25.8215 16.9736 25.5314L16.9747 13.6741C16.9747 13.3839 17.2102 13.1484 17.5003 13.1484C17.7905 13.1484 18.026 13.3839 18.026 13.6741L18.0249 25.5314C18.0249 25.8215 17.7894 26.057 17.4993 26.057Z" fill="#F6175A"/>
<path d="M17.4995 26.0568C17.3649 26.0568 17.2304 26.0053 17.1273 25.9033L12.5932 21.3692C12.3882 21.1642 12.3882 20.8309 12.5932 20.6259C12.7982 20.4209 13.1315 20.4209 13.3365 20.6259L17.4984 24.7879L21.6604 20.6259C21.8654 20.4209 22.1987 20.4209 22.4037 20.6259C22.6087 20.8309 22.6087 21.1642 22.4037 21.3692L17.8695 25.9033C17.7686 26.0053 17.6341 26.0568 17.4995 26.0568Z" fill="#F6175A"/>
<path d="M29.3718 35H5.62818C4.17953 35 3 33.8215 3 32.3718V2.6282C3 1.1785 4.17953 2.40579e-05 5.62818 2.40579e-05L23.0589 0C23.349 0 23.5845 0.235485 23.5845 0.525636C23.5845 0.815787 23.349 1.05127 23.0589 1.05127L5.62818 1.0513C4.75878 1.0513 4.05127 1.7588 4.05127 2.6282V32.3718C4.05127 33.2412 4.75878 33.9487 5.62818 33.9487H29.3718C30.2412 33.9487 30.9487 33.2412 30.9487 32.3718V9.1503C30.9487 8.86015 31.1842 8.62466 31.4744 8.62466C31.7645 8.62466 32 8.86015 32 9.1503V32.3729C32 33.8215 30.8215 35 29.3718 35Z" fill="#F6175A"/>
<path d="M31.4738 9.67581H23.0784C22.7882 9.67581 22.5527 9.44032 22.5527 9.15017V0.753663C22.5527 0.463512 22.7882 0.228027 23.0784 0.228027C23.3685 0.228027 23.604 0.463512 23.604 0.753663V8.62348H31.4738C31.764 8.62348 31.9995 8.85897 31.9995 9.14912C31.9995 9.43927 31.765 9.67581 31.4738 9.67581Z" fill="#F6175A"/>
<path d="M31.4741 9.67599C31.3374 9.67599 31.2007 9.62237 31.0977 9.51724L22.7023 0.893657C22.5004 0.686557 22.5046 0.352252 22.7128 0.150408C22.9199 -0.0524876 23.2531 -0.0472312 23.456 0.160921L31.8515 8.78451C32.0533 8.99161 32.0491 9.32591 31.841 9.52776C31.739 9.62658 31.6065 9.67599 31.4741 9.67599Z" fill="#F6175A"/>
</g>
<defs>
<clipPath id="clip0">
<rect width="35" height="35" fill="white"/>
</clipPath>
</defs>
</svg>
