<svg width="24" height="24" viewBox="0 0 24 24" fill="none" xmlns="http://www.w3.org/2000/svg">
<path d="M13.9848 5C13.9848 4.44772 13.5371 4 12.9848 4H11.0152C10.4629 4 10.0152 4.44772 10.0152 5V6.04541H6C5.44771 6.04541 5 6.49312 5 7.04541V8.52277C5 9.03832 5.41793 9.45625 5.93348 9.45625L6.88778 19.0985C6.93842 19.6101 7.36878 20 7.88292 20H16.1171C16.6312 20 17.0616 19.6101 17.1122 19.0985L18.0665 9.45625C18.5821 9.45625 19 9.03832 19 8.52277V7.04541C19 6.49312 18.5523 6.04541 18 6.04541H13.9848V5ZM10.9704 4.9375H13.0296V6.04541H10.9704V4.9375ZM16.1561 19.0625H7.84391L6.89317 9.45625H17.1068L16.1561 19.0625ZM18.0448 6.98291V8.51875H5.9552V6.98291H18.0448Z" fill="#F6175A"/>
<path d="M9.945 11.7361C9.93285 11.4814 9.72287 11.2812 9.46796 11.2812C9.19526 11.2812 8.97792 11.5092 8.99093 11.7816L9.22979 16.7848C9.24194 17.0394 9.45192 17.2396 9.70682 17.2396C9.97952 17.2396 10.1969 17.0116 10.1839 16.7392L9.945 11.7361Z" fill="#F6175A"/>
<path d="M12.4777 16.7621V11.7588C12.4777 11.4951 12.2638 11.2812 12.0001 11.2812C11.7363 11.2812 11.5225 11.4951 11.5225 11.7588V16.7621C11.5225 17.0259 11.7363 17.2397 12.0001 17.2397C12.2638 17.2397 12.4777 17.0259 12.4777 16.7621Z" fill="#F6175A"/>
<path d="M14.532 11.2812C14.2771 11.2812 14.0671 11.4814 14.055 11.7361L13.8161 16.7393C13.8031 17.0116 14.0205 17.2396 14.2931 17.2396C14.548 17.2396 14.758 17.0394 14.7702 16.7848L15.0091 11.7816C15.0221 11.5092 14.8047 11.2812 14.532 11.2812Z" fill="#F6175A"/>
</svg>
