<svg width="16" height="16" viewBox="0 0 16 16" fill="none" xmlns="http://www.w3.org/2000/svg">
<g clip-path="url(#clip0)">
<path d="M3.06572 0.203907C2.65353 -0.0442202 2.16227 -0.066408 1.73383 0.140157L8.91734 7.33898L11.2661 4.97927L3.06572 0.203907ZM1.07382 0.806414C0.983199 0.998291 0.934448 1.21173 0.934448 1.43142V14.5997C0.934448 14.8203 0.983511 15.0306 1.07507 15.2184L8.25577 8.00368L1.07382 0.806414ZM8.91831 8.66744L1.74636 15.8735C1.93668 15.9616 2.13918 16 2.34137 16C2.59106 16 2.84012 15.9403 3.06575 15.8047L11.2677 11.0221L8.91831 8.66744ZM14.3893 6.79804C14.3865 6.79617 14.3834 6.79429 14.3806 6.79273L12.1037 5.46678L9.57957 8.00274L12.1052 10.5337C12.1052 10.5337 14.3865 9.20369 14.3893 9.20213C14.8127 8.94494 15.0656 8.49556 15.0656 7.99993C15.0656 7.5043 14.8127 7.05492 14.3893 6.79804Z" fill="#F6175A"/>
</g>
<defs>
<clipPath id="clip0">
<rect width="16" height="16" fill="white"/>
</clipPath>
</defs>
</svg>
