<svg width="22" height="22" viewBox="0 0 22 22" fill="none" xmlns="http://www.w3.org/2000/svg">
<path d="M19.8133 5.11047C20.9782 6.85364 21.5999 8.90309 21.6 10.9996C21.5975 13.8095 20.4806 16.5036 18.4942 18.4908C16.5078 20.4781 13.8141 21.5963 11.0043 21.6C8.90773 21.6009 6.85805 20.9799 5.11437 19.8158C3.37059 18.6516 2.01118 16.9965 1.20818 15.0597C0.405179 13.1229 0.194648 10.9914 0.603127 8.93492C1.01161 6.87841 2.0208 4.98922 3.50305 3.50632C4.9853 2.02342 6.87402 1.0134 8.93035 0.604016C10.9867 0.194635 13.1182 0.404302 15.0554 1.20645C16.9926 2.00861 18.6483 3.36721 19.8133 5.11047Z" stroke="#1F1F1F" stroke-width="0.8"/>
<path d="M8.74355 18.8503C7.20256 18.4114 5.82333 17.5325 4.7764 16.3212C3.72998 15.1105 3.06226 13.6217 2.85418 12.0387C3.71802 11.9563 4.58967 12.0778 5.3983 12.394C6.23637 12.7216 6.98132 13.2484 7.56853 13.9285C8.15575 14.6085 8.56746 15.4211 8.76783 16.2957C8.96078 17.1378 8.95225 18.0129 8.74355 18.8503ZM4.77619 5.68007C5.82315 4.46858 7.20246 3.58954 8.74357 3.15055C8.95243 3.98805 8.96103 4.86324 8.76815 5.70552C8.56785 6.58022 8.15628 7.39297 7.56907 8.07308C6.98184 8.7532 6.2368 9.28008 5.39863 9.6078C4.58988 9.92401 3.71809 10.0455 2.85416 9.96308C3.06207 8.37994 3.72974 6.89098 4.77619 5.68007ZM16.7986 16.7284L16.798 16.7291C15.3524 18.1967 13.4035 19.0595 11.3482 19.1485C12.4064 18.1158 13.254 16.8872 13.8431 15.5308C14.464 14.1007 14.7845 12.5589 14.7845 11.0004C14.7845 9.442 14.464 7.90016 13.8431 6.47011C13.254 5.11353 12.4063 3.88489 11.3479 2.85208C12.8616 2.92119 14.3281 3.40818 15.5827 4.26096C16.9075 5.16142 17.9375 6.43 18.5451 7.90896C19.1527 9.3879 19.311 11.0122 19.0005 12.5801C18.6901 14.148 17.9245 15.5905 16.7986 16.7284ZM11.0956 19.2506L11.0956 19.2505L11.0956 19.2506ZM12.197 12.8237C11.8348 13.0647 11.4089 13.1933 10.9733 13.193C10.3895 13.1925 9.83006 12.9611 9.41773 12.5498C9.00544 12.1386 8.77397 11.5813 8.77376 11.0003C8.77361 10.5666 8.90245 10.1426 9.14413 9.78178C9.38581 9.42098 9.72957 9.13955 10.132 8.97331C10.5344 8.80707 10.9772 8.76357 11.4045 8.84833C11.8318 8.9331 12.2241 9.14229 12.5319 9.44924C12.8396 9.75616 13.0489 10.1471 13.1337 10.5725C13.2184 10.9979 13.1747 11.4388 13.0081 11.8394C12.8415 12.2401 12.5592 12.5827 12.197 12.8237Z" stroke="#1F1F1F" stroke-width="0.8"/>
</svg>
