<svg width="20" height="20" viewBox="0 0 20 20" fill="none" xmlns="http://www.w3.org/2000/svg">
<path fill-rule="evenodd" clip-rule="evenodd" d="M9.99792 1.99307C5.57691 1.99307 1.99298 5.57701 1.99298 9.99802C1.99298 14.419 5.57691 18.003 9.99792 18.003C14.4189 18.003 18.0029 14.419 18.0029 9.99802C18.0029 5.57701 14.4189 1.99307 9.99792 1.99307ZM0.99292 9.99802C0.99292 5.02469 5.02459 0.993011 9.99792 0.993011C14.9712 0.993011 19.0029 5.02469 19.0029 9.99802C19.0029 14.9713 14.9712 19.003 9.99792 19.003C5.02459 19.003 0.99292 14.9713 0.99292 9.99802ZM9.99759 9.4974C10.2737 9.4974 10.4976 9.72128 10.4976 9.99743V10.0048V10.0122V10.0196V10.0269V10.0343V10.0417V10.0491V10.0564V10.0638V10.0712V10.0786V10.0859V10.0933V10.1007V10.1081V10.1154V10.1228V10.1302V10.1376V10.145V10.1523V10.1597V10.1671V10.1745V10.1818V10.1892V10.1966V10.204V10.2113V10.2187V10.2261V10.2335V10.2408V10.2482V10.2556V10.263V10.2703V10.2777V10.2851V10.2925V10.2999V10.3072V10.3146V10.322V10.3294V10.3367V10.3441V10.3515V10.3589V10.3662V10.3736V10.381V10.3884V10.3958V10.4031V10.4105V10.4179V10.4253V10.4326V10.44V10.4474V10.4548V10.4621V10.4695V10.4769V10.4843V10.4917V10.499V10.5064V10.5138V10.5212V10.5285V10.5359V10.5433V10.5507V10.558V10.5654V10.5728V10.5802V10.5876V10.5949V10.6023V10.6097V10.6171V10.6244V10.6318V10.6392V10.6466V10.654V10.6613V10.6687V10.6761V10.6835V10.6908V10.6982V10.7056V10.713V10.7204V10.7277V10.7351V10.7425V10.7499V10.7572V10.7646V10.772V10.7794V10.7868V10.7941V10.8015V10.8089V10.8163V10.8236V10.831V10.8384V10.8458V10.8532V10.8605V10.8679V10.8753V10.8827V10.8901V10.8974V10.9048V10.9122V10.9196V10.9269V10.9343V10.9417V10.9491V10.9565V10.9638V10.9712V10.9786V10.986V10.9934V11.0007V11.0081V11.0155V11.0229V11.0302V11.0376V11.045V11.0524V11.0598V11.0671V11.0745V11.0819V11.0893V11.0967V11.104V11.1114V11.1188V11.1262V11.1335V11.1409V11.1483V11.1557V11.1631V11.1704V11.1778V11.1852V11.1926V11.2V11.2073V11.2147V11.2221V11.2295V11.2369V11.2442V11.2516V11.259V11.2664V11.2737V11.2811V11.2885V11.2959V11.3033V11.3106V11.318V11.3254V11.3328V11.3402V11.3475V11.3549V11.3623V11.3697V11.3771V11.3844V11.3918V11.3992V11.4066V11.414V11.4213V11.4287V11.4361V11.4435V11.4509V11.4582V11.4656V11.473V11.4804V11.4878V11.4951V11.5025V11.5099V11.5173V11.5247V11.532V11.5394V11.5468V11.5542V11.5616V11.5689V11.5763V11.5837V11.5911V11.5985V11.6058V11.6132V11.6206V11.628V11.6354V11.6427V11.6501V11.6575V11.6649V11.6723V11.6796V11.687V11.6944V11.7018V11.7092V11.7165V11.7239V11.7313V11.7387V11.7461V11.7534V11.7608V11.7682V11.7756V11.783V11.7903V11.7977V11.8051V11.8125V11.8199V11.8272V11.8346V11.842V11.8494V11.8568V11.8641V11.8715V11.8789V11.8863V11.8937V11.901V11.9084V11.9158V11.9232V11.9306V11.9379V11.9453V11.9527V11.9601V11.9675V11.9748V11.9822V11.9896V11.997V12.0044V12.0118V12.0191V12.0265V12.0339V12.0413V12.0487V12.056V12.0634V12.0708V12.0782V12.0856V12.0929V12.1003V12.1077V12.1151V12.1225V12.1298V12.1372V12.1446V12.152V12.1594V12.1667V12.1741V12.1815V12.1889V12.1963V12.2037V12.211V12.2184V12.2258V12.2332V12.2406V12.2479V12.2553V12.2627V12.2701V12.2775V12.2848V12.2922V12.2996V12.307V12.3144V12.3218V12.3291V12.3365V12.3439V12.3513V12.3587V12.366V12.3734V12.3808V12.3882V12.3956V12.4029V12.4103V12.4177V12.4251V12.4325V12.4399V12.4472V12.4546V12.462V12.4694V12.4768V12.4841V12.4915V12.4989V12.5063V12.5137V12.521V12.5284V12.5358V12.5432V12.5506V12.558V12.5653V12.5727V12.5801V12.5875V12.5949V12.6022V12.6096V12.617V12.6244V12.6318V12.6392V12.6465V12.6539V12.6613V12.6687V12.6761V12.6834V12.6908V12.6982V12.7056V12.713V12.7203V12.7277V12.7351V12.7425V12.7499V12.7573V12.7646V12.772V12.7794V12.7868V12.7942V12.8015V12.8089V12.8163V12.8237V12.8311V12.8385V12.8458V12.8532V12.8606V12.868V12.8754V12.8827V12.8901V12.8975V12.9049V12.9123V12.9197V12.927V12.9344V12.9418V12.9492V12.9566V12.9639V12.9713V12.9787V12.9861V12.9935V13.0009V13.0082V13.0156V13.023V13.0304V13.0378V13.0451V13.0525V13.0599V13.0673V13.0747V13.0821V13.0894V13.0968V13.1042V13.1116V13.119V13.1263V13.1337V13.1411V13.1485V13.1559V13.1633V13.1706V13.178V13.1854V13.1928V13.2002V13.2075V13.2149V13.2223V13.2297V13.2371V13.2445V13.2518V13.2592V13.2666V13.274V13.2814V13.2887V13.2961V13.3035V13.3109V13.3183V13.3257V13.333V13.3404V13.3478V13.3552V13.3626V13.37V13.3773V13.3847V13.3921V13.3995V13.4069V13.4142V13.4216V13.429V13.4364V13.4438V13.4512V13.4585V13.4659V13.4733V13.4807V13.4881V13.4954V13.5028V13.5102V13.5176V13.525V13.5324V13.5397V13.5471V13.5545V13.5619V13.5693V13.5767V13.584V13.5914V13.5988V13.6062V13.6136V13.6209V13.6283V13.6357V13.6431V13.6505V13.6579V13.6652V13.6726V13.68V13.6874V13.6948V13.7021V13.7095V13.7169V13.7243V13.7317V13.7391V13.7464V13.7538V13.7612V13.7686V13.776C10.4976 14.0521 10.2737 14.276 9.99759 14.276C9.72143 14.276 9.49756 14.0521 9.49756 13.776V13.7686V13.7612V13.7538V13.7464V13.7391V13.7317V13.7243V13.7169V13.7095V13.7021V13.6948V13.6874V13.68V13.6726V13.6652V13.6579V13.6505V13.6431V13.6357V13.6283V13.6209V13.6136V13.6062V13.5988V13.5914V13.584V13.5767V13.5693V13.5619V13.5545V13.5471V13.5397V13.5324V13.525V13.5176V13.5102V13.5028V13.4954V13.4881V13.4807V13.4733V13.4659V13.4585V13.4512V13.4438V13.4364V13.429V13.4216V13.4142V13.4069V13.3995V13.3921V13.3847V13.3773V13.37V13.3626V13.3552V13.3478V13.3404V13.333V13.3257V13.3183V13.3109V13.3035V13.2961V13.2887V13.2814V13.274V13.2666V13.2592V13.2518V13.2445V13.2371V13.2297V13.2223V13.2149V13.2075V13.2002V13.1928V13.1854V13.178V13.1706V13.1633V13.1559V13.1485V13.1411V13.1337V13.1263V13.119V13.1116V13.1042V13.0968V13.0894V13.0821V13.0747V13.0673V13.0599V13.0525V13.0451V13.0378V13.0304V13.023V13.0156V13.0082V13.0009V12.9935V12.9861V12.9787V12.9713V12.9639V12.9566V12.9492V12.9418V12.9344V12.927V12.9197V12.9123V12.9049V12.8975V12.8901V12.8827V12.8754V12.868V12.8606V12.8532V12.8458V12.8385V12.8311V12.8237V12.8163V12.8089V12.8015V12.7942V12.7868V12.7794V12.772V12.7646V12.7573V12.7499V12.7425V12.7351V12.7277V12.7203V12.713V12.7056V12.6982V12.6908V12.6834V12.6761V12.6687V12.6613V12.6539V12.6465V12.6392V12.6318V12.6244V12.617V12.6096V12.6022V12.5949V12.5875V12.5801V12.5727V12.5653V12.558V12.5506V12.5432V12.5358V12.5284V12.521V12.5137V12.5063V12.4989V12.4915V12.4841V12.4768V12.4694V12.462V12.4546V12.4472V12.4399V12.4325V12.4251V12.4177V12.4103V12.4029V12.3956V12.3882V12.3808V12.3734V12.366V12.3587V12.3513V12.3439V12.3365V12.3291V12.3218V12.3144V12.307V12.2996V12.2922V12.2848V12.2775V12.2701V12.2627V12.2553V12.2479V12.2406V12.2332V12.2258V12.2184V12.211V12.2037V12.1963V12.1889V12.1815V12.1741V12.1667V12.1594V12.152V12.1446V12.1372V12.1298V12.1225V12.1151V12.1077V12.1003V12.0929V12.0856V12.0782V12.0708V12.0634V12.056V12.0487V12.0413V12.0339V12.0265V12.0191V12.0118V12.0044V11.997V11.9896V11.9822V11.9748V11.9675V11.9601V11.9527V11.9453V11.9379V11.9306V11.9232V11.9158V11.9084V11.901V11.8937V11.8863V11.8789V11.8715V11.8641V11.8568V11.8494V11.842V11.8346V11.8272V11.8199V11.8125V11.8051V11.7977V11.7903V11.783V11.7756V11.7682V11.7608V11.7534V11.7461V11.7387V11.7313V11.7239V11.7165V11.7092V11.7018V11.6944V11.687V11.6796V11.6723V11.6649V11.6575V11.6501V11.6427V11.6354V11.628V11.6206V11.6132V11.6058V11.5985V11.5911V11.5837V11.5763V11.5689V11.5616V11.5542V11.5468V11.5394V11.532V11.5247V11.5173V11.5099V11.5025V11.4951V11.4878V11.4804V11.473V11.4656V11.4582V11.4509V11.4435V11.4361V11.4287V11.4213V11.414V11.4066V11.3992V11.3918V11.3844V11.3771V11.3697V11.3623V11.3549V11.3475V11.3402V11.3328V11.3254V11.318V11.3106V11.3033V11.2959V11.2885V11.2811V11.2737V11.2664V11.259V11.2516V11.2442V11.2369V11.2295V11.2221V11.2147V11.2073V11.2V11.1926V11.1852V11.1778V11.1704V11.1631V11.1557V11.1483V11.1409V11.1335V11.1262V11.1188V11.1114V11.104V11.0967V11.0893V11.0819V11.0745V11.0671V11.0598V11.0524V11.045V11.0376V11.0302V11.0229V11.0155V11.0081V11.0007V10.9934V10.986V10.9786V10.9712V10.9638V10.9565V10.9491V10.9417V10.9343V10.9269V10.9196V10.9122V10.9048V10.8974V10.8901V10.8827V10.8753V10.8679V10.8605V10.8532V10.8458V10.8384V10.831V10.8236V10.8163V10.8089V10.8015V10.7941V10.7868V10.7794V10.772V10.7646V10.7572V10.7499V10.7425V10.7351V10.7277V10.7204V10.713V10.7056V10.6982V10.6908V10.6835V10.6761V10.6687V10.6613V10.654V10.6466V10.6392V10.6318V10.6244V10.6171V10.6097V10.6023V10.5949V10.5876V10.5802V10.5728V10.5654V10.558V10.5507V10.5433V10.5359V10.5285V10.5212V10.5138V10.5064V10.499V10.4917V10.4843V10.4769V10.4695V10.4621V10.4548V10.4474V10.44V10.4326V10.4253V10.4179V10.4105V10.4031V10.3958V10.3884V10.381V10.3736V10.3662V10.3589V10.3515V10.3441V10.3367V10.3294V10.322V10.3146V10.3072V10.2999V10.2925V10.2851V10.2777V10.2703V10.263V10.2556V10.2482V10.2408V10.2335V10.2261V10.2187V10.2113V10.204V10.1966V10.1892V10.1818V10.1745V10.1671V10.1597V10.1523V10.145V10.1376V10.1302V10.1228V10.1154V10.1081V10.1007V10.0933V10.0859V10.0786V10.0712V10.0638V10.0564V10.0491V10.0417V10.0343V10.0269V10.0196V10.0122V10.0048V9.99743C9.49756 9.72128 9.72143 9.4974 9.99759 9.4974ZM10.4976 6.21893C10.4976 5.94278 10.2737 5.7189 9.99759 5.7189C9.72143 5.7189 9.49756 5.94278 9.49756 6.21893V6.22078V6.22263V6.22448V6.22633V6.22818V6.23003V6.23188V6.23373V6.23558V6.23743V6.23928V6.24113V6.24298V6.24483V6.24668V6.24853V6.25038V6.25223V6.25408V6.25593V6.25777V6.25962V6.26147V6.26332V6.26517V6.26702V6.26887V6.27072V6.27257V6.27442V6.27627V6.27812V6.27996V6.28181V6.28366V6.28551V6.28736V6.28921V6.29106V6.29291V6.29476V6.29661V6.29845V6.3003V6.30215V6.304V6.30585V6.3077V6.30955V6.3114V6.31324V6.31509V6.31694V6.31879V6.32064V6.32249V6.32434V6.32619V6.32803V6.32988V6.33173V6.33358V6.33543V6.33728V6.33912V6.34097V6.34282V6.34467V6.34652V6.34837V6.35022V6.35206V6.35391V6.35576V6.35761V6.35946V6.3613V6.36315V6.365V6.36685V6.3687V6.37055V6.37239V6.37424V6.37609V6.37794V6.37979V6.38163V6.38348V6.38533V6.38718V6.38903V6.39087V6.39272V6.39457V6.39642V6.39827V6.40011V6.40196V6.40381V6.40566V6.40751V6.40935V6.4112V6.41305V6.4149V6.41674V6.41859V6.42044V6.42229V6.42413V6.42598V6.42783V6.42968V6.43152V6.43337V6.43522V6.43707V6.43891V6.44076V6.44261V6.44446V6.4463V6.44815V6.45V6.45185V6.45369V6.45554V6.45739V6.45924V6.46108V6.46293V6.46478V6.46663V6.46847V6.47032V6.47217V6.47401V6.47586V6.47771V6.47956V6.4814V6.48325V6.4851V6.48694V6.48879V6.49064V6.49249V6.49433V6.49618V6.49803V6.49987V6.50172V6.50357V6.50541V6.50726V6.50911V6.51095V6.5128V6.51465V6.51649V6.51834V6.52019V6.52204V6.52388V6.52573V6.52758V6.52942V6.53127V6.53312V6.53496V6.53681V6.53866V6.5405V6.54235V6.5442V6.54604V6.54789V6.54974V6.55158V6.55343V6.55527V6.55712V6.55897V6.56081V6.56266V6.56451V6.56635V6.5682V6.57005V6.57189V6.57374V6.57559V6.57743V6.57928V6.58113V6.58297V6.58482V6.58666V6.58851V6.59036V6.5922V6.59405V6.5959V6.59774V6.59959V6.60143V6.60328V6.60513V6.60697V6.60882V6.61066V6.61251V6.61436V6.6162V6.61805V6.6199V6.62174V6.62359V6.62543V6.62728V6.62913V6.63097V6.63282V6.63466V6.63651V6.63836V6.6402V6.64205V6.64389V6.64574V6.64758V6.64943V6.65128V6.65312V6.65497V6.65681V6.65866V6.66051V6.66235V6.6642V6.66604V6.66789V6.66973V6.67158V6.67343V6.67527V6.67712V6.67896V6.68081V6.68265V6.6845V6.68635V6.68819V6.69004V6.69188V6.69373V6.69557V6.69742V6.69927V6.70111V6.70296V6.7048V6.70665V6.70849V6.71034V6.71218V6.71403V6.71587V6.71772V6.71957V6.72141V6.72326V6.7251V6.72695V6.72879V6.73064V6.73248V6.73433V6.73617V6.73802V6.73986V6.74171V6.74356V6.7454V6.74725V6.74909V6.75094V6.75278V6.75463V6.75647V6.75832V6.76016V6.76201V6.76385V6.7657V6.76754V6.76939V6.77123V6.77308V6.77492V6.77677V6.77861V6.78046V6.78231V6.78415V6.786V6.78784V6.78969V6.79153V6.79338V6.79522V6.79707V6.79891V6.80076V6.8026V6.80445V6.80629V6.80814V6.80998V6.81183V6.81367V6.81552V6.81736V6.81921V6.82105V6.8229V6.82474V6.82659V6.82843V6.83028V6.83212V6.83397V6.83581V6.83766V6.8395V6.84135V6.84319V6.84504V6.84688V6.84872V6.85057V6.85241V6.85426V6.8561V6.85795V6.85979V6.86164V6.86348V6.86533V6.86717V6.86902V6.87086V6.87271V6.87455V6.8764V6.87824V6.88009V6.88193V6.88378V6.88562V6.88747V6.88931V6.89115V6.893V6.89484V6.89669V6.89853V6.90038V6.90222V6.90407V6.90591V6.90776V6.9096V6.91145V6.91329V6.91513V6.91698V6.91882V6.92067V6.92251V6.92436V6.9262V6.92805V6.92989V6.93174V6.93358V6.93543V6.93727V6.93911V6.94096V6.9428V6.94465V6.94649V6.94834V6.95018V6.95203V6.95387V6.95571V6.95756V6.9594V6.96125V6.96309V6.96494V6.96678V6.96863V6.97047V6.97231V6.97416V6.976V6.97785V6.97969V6.98154V6.98338V6.98523V6.98707V6.98891V6.99076V6.9926V6.99445V6.99629V6.99814V6.99998V7.00183V7.00367V7.00551V7.00736V7.0092V7.01105V7.01289V7.01474V7.01658V7.01842V7.02027V7.02211V7.02396V7.0258V7.02765V7.02949V7.03134V7.03318V7.03502V7.03687V7.03871V7.04056V7.0424V7.04425V7.04609V7.04793V7.04978V7.05162V7.05347V7.05531V7.05716V7.059V7.06084V7.06269V7.06453V7.06638V7.06822V7.07007V7.07191V7.07375V7.0756V7.07744V7.07929V7.08113V7.08298V7.08482V7.08666V7.08851V7.09035V7.0922V7.09404V7.09589V7.09773V7.09957V7.10142V7.10326V7.10511V7.10695V7.1088V7.11064V7.11248V7.11433V7.11617V7.11802V7.11986V7.12171V7.12355V7.12539V7.12724V7.12908V7.13093V7.13277V7.13461V7.13646V7.1383V7.14015V7.14199V7.14384V7.14568V7.14752V7.14937V7.15121V7.15306V7.1549V7.15675V7.15859V7.16043V7.16228V7.16412C9.49756 7.44028 9.72143 7.66415 9.99759 7.66415C10.2737 7.66415 10.4976 7.44028 10.4976 7.16412V7.16228V7.16043V7.15859V7.15675V7.1549V7.15306V7.15121V7.14937V7.14752V7.14568V7.14384V7.14199V7.14015V7.1383V7.13646V7.13461V7.13277V7.13093V7.12908V7.12724V7.12539V7.12355V7.12171V7.11986V7.11802V7.11617V7.11433V7.11248V7.11064V7.1088V7.10695V7.10511V7.10326V7.10142V7.09957V7.09773V7.09589V7.09404V7.0922V7.09035V7.08851V7.08666V7.08482V7.08298V7.08113V7.07929V7.07744V7.0756V7.07375V7.07191V7.07007V7.06822V7.06638V7.06453V7.06269V7.06084V7.059V7.05716V7.05531V7.05347V7.05162V7.04978V7.04793V7.04609V7.04425V7.0424V7.04056V7.03871V7.03687V7.03502V7.03318V7.03134V7.02949V7.02765V7.0258V7.02396V7.02211V7.02027V7.01842V7.01658V7.01474V7.01289V7.01105V7.0092V7.00736V7.00551V7.00367V7.00183V6.99998V6.99814V6.99629V6.99445V6.9926V6.99076V6.98891V6.98707V6.98523V6.98338V6.98154V6.97969V6.97785V6.976V6.97416V6.97231V6.97047V6.96863V6.96678V6.96494V6.96309V6.96125V6.9594V6.95756V6.95571V6.95387V6.95203V6.95018V6.94834V6.94649V6.94465V6.9428V6.94096V6.93911V6.93727V6.93543V6.93358V6.93174V6.92989V6.92805V6.9262V6.92436V6.92251V6.92067V6.91882V6.91698V6.91513V6.91329V6.91145V6.9096V6.90776V6.90591V6.90407V6.90222V6.90038V6.89853V6.89669V6.89484V6.893V6.89115V6.88931V6.88747V6.88562V6.88378V6.88193V6.88009V6.87824V6.8764V6.87455V6.87271V6.87086V6.86902V6.86717V6.86533V6.86348V6.86164V6.85979V6.85795V6.8561V6.85426V6.85241V6.85057V6.84872V6.84688V6.84504V6.84319V6.84135V6.8395V6.83766V6.83581V6.83397V6.83212V6.83028V6.82843V6.82659V6.82474V6.8229V6.82105V6.81921V6.81736V6.81552V6.81367V6.81183V6.80998V6.80814V6.80629V6.80445V6.8026V6.80076V6.79891V6.79707V6.79522V6.79338V6.79153V6.78969V6.78784V6.786V6.78415V6.78231V6.78046V6.77861V6.77677V6.77492V6.77308V6.77123V6.76939V6.76754V6.7657V6.76385V6.76201V6.76016V6.75832V6.75647V6.75463V6.75278V6.75094V6.74909V6.74725V6.7454V6.74356V6.74171V6.73986V6.73802V6.73617V6.73433V6.73248V6.73064V6.72879V6.72695V6.7251V6.72326V6.72141V6.71957V6.71772V6.71587V6.71403V6.71218V6.71034V6.70849V6.70665V6.7048V6.70296V6.70111V6.69927V6.69742V6.69557V6.69373V6.69188V6.69004V6.68819V6.68635V6.6845V6.68265V6.68081V6.67896V6.67712V6.67527V6.67343V6.67158V6.66973V6.66789V6.66604V6.6642V6.66235V6.66051V6.65866V6.65681V6.65497V6.65312V6.65128V6.64943V6.64758V6.64574V6.64389V6.64205V6.6402V6.63836V6.63651V6.63466V6.63282V6.63097V6.62913V6.62728V6.62543V6.62359V6.62174V6.6199V6.61805V6.6162V6.61436V6.61251V6.61066V6.60882V6.60697V6.60513V6.60328V6.60143V6.59959V6.59774V6.5959V6.59405V6.5922V6.59036V6.58851V6.58666V6.58482V6.58297V6.58113V6.57928V6.57743V6.57559V6.57374V6.57189V6.57005V6.5682V6.56635V6.56451V6.56266V6.56081V6.55897V6.55712V6.55527V6.55343V6.55158V6.54974V6.54789V6.54604V6.5442V6.54235V6.5405V6.53866V6.53681V6.53496V6.53312V6.53127V6.52942V6.52758V6.52573V6.52388V6.52204V6.52019V6.51834V6.51649V6.51465V6.5128V6.51095V6.50911V6.50726V6.50541V6.50357V6.50172V6.49987V6.49803V6.49618V6.49433V6.49249V6.49064V6.48879V6.48694V6.4851V6.48325V6.4814V6.47956V6.47771V6.47586V6.47401V6.47217V6.47032V6.46847V6.46663V6.46478V6.46293V6.46108V6.45924V6.45739V6.45554V6.45369V6.45185V6.45V6.44815V6.4463V6.44446V6.44261V6.44076V6.43891V6.43707V6.43522V6.43337V6.43152V6.42968V6.42783V6.42598V6.42413V6.42229V6.42044V6.41859V6.41674V6.4149V6.41305V6.4112V6.40935V6.40751V6.40566V6.40381V6.40196V6.40011V6.39827V6.39642V6.39457V6.39272V6.39087V6.38903V6.38718V6.38533V6.38348V6.38163V6.37979V6.37794V6.37609V6.37424V6.37239V6.37055V6.3687V6.36685V6.365V6.36315V6.3613V6.35946V6.35761V6.35576V6.35391V6.35206V6.35022V6.34837V6.34652V6.34467V6.34282V6.34097V6.33912V6.33728V6.33543V6.33358V6.33173V6.32988V6.32803V6.32619V6.32434V6.32249V6.32064V6.31879V6.31694V6.31509V6.31324V6.3114V6.30955V6.3077V6.30585V6.304V6.30215V6.3003V6.29845V6.29661V6.29476V6.29291V6.29106V6.28921V6.28736V6.28551V6.28366V6.28181V6.27996V6.27812V6.27627V6.27442V6.27257V6.27072V6.26887V6.26702V6.26517V6.26332V6.26147V6.25962V6.25777V6.25593V6.25408V6.25223V6.25038V6.24853V6.24668V6.24483V6.24298V6.24113V6.23928V6.23743V6.23558V6.23373V6.23188V6.23003V6.22818V6.22633V6.22448V6.22263V6.22078V6.21893Z" fill="#F6175A"/>
</svg>
