<svg width="16" height="16" viewBox="0 0 16 16" fill="none" xmlns="http://www.w3.org/2000/svg">
<path fill-rule="evenodd" clip-rule="evenodd" d="M14.5 15.0596C14.7761 15.0596 15 14.8357 15 14.5596L15 1.56885C15 1.29271 14.7761 1.06885 14.5 1.06885H8.5C8.22386 1.06885 8 1.29271 8 1.56885C8 1.84499 8.22386 2.06885 8.5 2.06885L14 2.06885L14 14.0596L8.5 14.0596C8.22385 14.0596 8 14.2835 8 14.5596C8 14.8357 8.22385 15.0596 8.5 15.0596L14.5 15.0596ZM1.15035 8.41801L4.33233 11.6C4.5276 11.7952 4.84418 11.7952 5.03944 11.6C5.2347 11.4047 5.2347 11.0881 5.03944 10.8929L2.71101 8.56445H10.5238C10.7999 8.56445 11.0238 8.3406 11.0238 8.06445C11.0238 7.78831 10.7999 7.56445 10.5238 7.56445H2.71101L5.03944 5.23603C5.2347 5.04076 5.2347 4.72418 5.03944 4.52892C4.84418 4.33366 4.5276 4.33366 4.33233 4.52892L1.15035 7.7109C0.955091 7.90616 0.955091 8.22274 1.15035 8.41801Z" fill="white"/>
</svg>
