<svg width="24" height="24" viewBox="0 0 24 24" fill="none" xmlns="http://www.w3.org/2000/svg">
<path fill-rule="evenodd" clip-rule="evenodd" d="M5.00006 11C5.00006 7.68631 7.68634 5.00003 11 5.00003C14.3137 5.00003 17 7.68631 17 11C17 12.6977 16.2949 14.2306 15.1617 15.3221C15.1554 15.3277 15.1493 15.3335 15.1433 15.3396C15.1425 15.3404 15.1417 15.3412 15.1409 15.342C14.0641 16.3692 12.6057 17 11 17C7.68634 17 5.00006 14.3137 5.00006 11ZM15.4778 16.3807C14.2642 17.3918 12.7031 18 11 18C7.13402 18 4 14.866 4 11C4 7.13399 7.13402 3.99997 11 3.99997C14.866 3.99997 18.0001 7.13399 18.0001 11C18.0001 12.8029 17.3185 14.4466 16.1989 15.6875C16.7338 16.2221 17.2685 16.7568 17.8031 17.2914L17.8036 17.2919C18.4542 17.9425 19.1047 18.593 19.7555 19.2433C19.9508 19.4385 19.9509 19.7551 19.7558 19.9504C19.5606 20.1458 19.2439 20.1459 19.0486 19.9507C18.3988 19.3014 17.7492 18.6518 17.0997 18.0023L17.096 17.9986L17.0956 17.9982L17.0919 17.9945C16.5539 17.4565 16.0159 16.9185 15.4778 16.3807Z" fill="white"/>
</svg>
