<svg width="18" height="18" viewBox="0 0 18 18" fill="none" xmlns="http://www.w3.org/2000/svg">
<path d="M16 9.50011C16 9.75631 15.7923 9.964 15.5361 9.964H9.96427V15.5357C9.96427 15.7921 9.7564 16 9.49998 16C9.24357 16 9.0357 15.7921 9.0357 15.5357V9.964H3.46387C3.20767 9.964 2.99998 9.75631 2.99998 9.50011C2.99998 9.24391 3.20768 9.03622 3.46387 9.03622H9.0357V3.46429C9.0357 3.20787 9.24357 3 9.49998 3C9.7564 3 9.96427 3.20787 9.96427 3.46429V9.03622H15.5361C15.7923 9.03622 16 9.24391 16 9.50011Z" fill="#F6175A"/>
</svg>
