<svg width="24" height="24" viewBox="0 0 24 24" fill="none" xmlns="http://www.w3.org/2000/svg">
<path d="M18.0498 12.3446C16.8916 10.9344 14.8364 9.2559 10.9886 9.11193V6.5009C10.9886 6.34712 10.9003 6.20315 10.7596 6.13771C10.6189 6.07227 10.452 6.09191 10.3342 6.19006L4.14724 11.1864C4.05562 11.2616 4 11.3761 4 11.4939C4 11.615 4.05235 11.7262 4.14397 11.8015L10.3309 16.8174C10.452 16.9156 10.6156 16.9385 10.7563 16.8698C10.897 16.8043 10.9853 16.6636 10.9853 16.5066V13.9054C13.4982 13.9152 17.2122 14.1017 19.2507 17.6976C19.3226 17.8252 19.4568 17.9004 19.6008 17.9004C19.6335 17.9004 19.6695 17.8972 19.7022 17.8873C19.8789 17.8415 19.9999 17.6812 19.9999 17.5013C20.0032 16.1565 19.4895 14.0984 18.0498 12.3446ZM10.5862 13.1037C10.4782 13.1037 10.3768 13.1463 10.3015 13.2215C10.2262 13.2968 10.1837 13.3982 10.1837 13.5062V15.6559L5.03394 11.4972L10.187 7.35161V9.50129C10.187 9.72052 10.3637 9.90047 10.5829 9.90375C16.3416 9.95937 18.3607 13.4702 18.9856 15.9373C16.5055 13.107 12.9191 13.1037 10.5862 13.1037Z" fill="#F6175A"/>
</svg>
