<svg width="24" height="24" viewBox="0 0 24 24" fill="none" xmlns="http://www.w3.org/2000/svg">
<path d="M19.9695 14.9961C19.8636 14.6703 19.5138 14.4922 19.188 14.5979L18.3814 14.8599C18.8755 13.8381 19.1343 12.7145 19.1343 11.5671C19.1343 7.39459 15.7397 4 11.5671 4C7.39459 4 4 7.39459 4 11.5671C4 15.7397 7.39459 19.1343 11.5671 19.1343C11.9097 19.1343 12.1874 18.8565 12.1874 18.514C12.1874 18.1715 11.9097 17.8938 11.5671 17.8938C8.07861 17.8938 5.24051 15.0557 5.24051 11.5671C5.24051 8.07861 8.07861 5.24051 11.5671 5.24051C15.0557 5.24051 17.8938 8.07861 17.8938 11.5671C17.8938 12.5284 17.6769 13.4694 17.2624 14.3245L16.9869 13.4761C16.8811 13.1504 16.5311 12.9722 16.2054 13.0779C15.8796 13.1838 15.7012 13.5337 15.8071 13.8595L16.5385 16.1107C16.6236 16.3728 16.8667 16.5395 17.1282 16.5395C17.1917 16.5395 17.2563 16.5297 17.32 16.509L19.5712 15.7777C19.897 15.6718 20.0753 15.322 19.9695 14.9961Z" fill="#F6175A"/>
</svg>
