<svg width="16" height="16" viewBox="0 0 16 16" fill="none" xmlns="http://www.w3.org/2000/svg">
<path fill-rule="evenodd" clip-rule="evenodd" d="M13.3263 3.99382L1.50208 3.99382C1.22593 3.99382 1.00207 3.76996 1.00207 3.49382C1.00207 3.21767 1.22593 2.99382 1.50208 2.99382L13.27 2.99382L11.2108 0.90094C11.0171 0.704103 11.0197 0.387531 11.2165 0.193857C11.4133 0.000181697 11.7299 0.00274611 11.9236 0.199583L14.848 3.17173C15.0394 3.36631 15.0394 3.6785 14.848 3.87308L11.9236 6.84523C11.7299 7.04206 11.4133 7.04463 11.2165 6.85095C11.0197 6.65728 11.0171 6.34071 11.2108 6.14387L13.3263 3.99382ZM1.16165 12.175C0.97019 12.3696 0.97019 12.6818 1.16165 12.8763L4.08604 15.8485C4.27971 16.0453 4.59629 16.0479 4.79312 15.8542C4.98996 15.6605 4.99252 15.344 4.79885 15.1471L2.68334 12.9971L14.5075 12.9971C14.7837 12.9971 15.0075 12.7732 15.0075 12.4971C15.0075 12.2209 14.7837 11.9971 14.5075 11.9971L2.7396 11.9971L4.79885 9.9042C4.99252 9.70736 4.98996 9.39079 4.79312 9.19711C4.59629 9.00344 4.27971 9.006 4.08604 9.20284L1.16165 12.175Z" fill="white"/>
</svg>
