<svg width="24" height="24" viewBox="0 0 24 24" fill="none" xmlns="http://www.w3.org/2000/svg">
<path fill-rule="evenodd" clip-rule="evenodd" d="M17.0307 8C17.0307 9.44777 16.4116 10.7518 15.4222 11.6649C18.4302 12.8861 20.6295 15.6692 21 19H18.9837C18.4952 15.616 15.564 13 12 13C8.43603 13 5.50485 15.616 5.0163 19H3C3.37047 15.6692 5.56979 12.8861 8.57783 11.6649C7.5884 10.7518 6.9693 9.44777 6.9693 8C6.9693 5.23858 9.22162 3 12 3C14.7784 3 17.0307 5.23858 17.0307 8ZM12 11C13.6854 11 15.0307 9.64533 15.0307 8C15.0307 6.35467 13.6854 5 12 5C10.3146 5 8.9693 6.35467 8.9693 8C8.9693 9.64533 10.3146 11 12 11Z" fill="#F6175A"/>
</svg>
