<svg width="60" height="60" viewBox="0 0 60 60" fill="none" xmlns="http://www.w3.org/2000/svg">
<path d="M59.45 30.0001C59.45 46.2787 46.2536 59.4752 29.975 59.4752C13.6964 59.4752 0.5 46.2787 0.5 30.0001C0.5 13.7216 13.6964 0.525146 29.975 0.525146C46.2536 0.525146 59.45 13.7216 59.45 30.0001Z" stroke="#E6E6E6"/>
<path fill-rule="evenodd" clip-rule="evenodd" d="M20.4125 22.0394C19.6373 22.0394 18.9976 22.6792 18.9976 23.4624V27.213H19.2654C20.8108 27.213 22.0688 28.481 22.0688 30.0281C22.0688 31.5752 20.8108 32.8433 19.2654 32.8433H18.9976V36.5923C18.9976 37.3773 19.6376 38.0169 20.4125 38.0169H39.6167C40.3916 38.0169 41.0316 37.3773 41.0316 36.5923V32.8433H40.7638C39.2184 32.8433 37.9604 31.5752 37.9604 30.0281C37.9604 28.481 39.2184 27.213 40.7638 27.213H41.0316V23.4624C41.0316 22.6792 40.3918 22.0394 39.6167 22.0394H20.4125ZM17.9976 23.4624C17.9976 22.1312 19.0808 21.0393 20.4125 21.0393H39.6167C40.9484 21.0393 42.0316 22.1312 42.0316 23.4624V27.713V28.213H41.5316H40.7638C39.7755 28.213 38.9604 29.0286 38.9604 30.0281C38.9604 31.0277 39.7755 31.8432 40.7638 31.8432H41.5316H42.0316V32.3433V36.5923C42.0316 37.9248 40.9487 39.0169 39.6167 39.0169H20.4125C19.0805 39.0169 17.9976 37.9248 17.9976 36.5923V32.3433V31.8432H18.4976H19.2654C20.2537 31.8432 21.0688 31.0277 21.0688 30.0281C21.0688 29.0286 20.2537 28.213 19.2654 28.213H18.4976H17.9976V27.713V23.4624ZM24.0932 26.5286C24.0932 26.2524 24.3171 26.0285 24.5933 26.0285H24.6113H24.6293H24.6472H24.6652H24.6832H24.7012H24.7192H24.7372H24.7552H24.7732H24.7912H24.8092H24.8272H24.8452H24.8632H24.8812H24.8992H24.9172H24.9352H24.9532H24.9712H24.9892H25.0072H25.0251H25.0431H25.0611H25.0791H25.0971H25.1151H25.1331H25.1511H25.1691H25.1871H25.2051H25.2231H25.2411H25.2591H25.2771H25.2951H25.3131H25.3311H25.3491H25.3671H25.3851H25.4031H25.421H25.439H25.457H25.475H25.493H25.511H25.529H25.547H25.565H25.583H25.601H25.619H25.637H25.655H25.673H25.691H25.709H25.727H25.745H25.763H25.781H25.7989H25.8169H25.8349H25.8529H25.8709H25.8889H25.9069H25.9249H25.9429H25.9609H25.9789H25.9969H26.0149H26.0329H26.0509H26.0689H26.0869H26.1049H26.1229H26.1409H26.1589H26.1768H26.1948H26.2128H26.2308H26.2488H26.2668H26.2848H26.3028H26.3208H26.3388H26.3568H26.3748H26.3928H26.4108H26.4288H26.4468H26.4648H26.4828H26.5008H26.5188H26.5368H26.5548H26.5727H26.5907H26.6087H26.6267H26.6447H26.6627H26.6807H26.6987H26.7167H26.7347H26.7527H26.7707H26.7887H26.8067H26.8247H26.8427H26.8607H26.8787H26.8967H26.9147H26.9327H26.9506H26.9686H26.9866H27.0046H27.0226H27.0406H27.0586H27.0766H27.0946H27.1126H27.1306H27.1486H27.1666H27.1846H27.2026H27.2206H27.2386H27.2566H27.2746H27.2926H27.3106H27.3285H27.3465H27.3645H27.3825H27.4005H27.4185H27.4365H27.4545H27.4725H27.4905H27.5085H27.5265H27.5445H27.5625H27.5805H27.5985H27.6165H27.6345H27.6525H27.6705H27.6885H27.7064H27.7244H27.7424H27.7604H27.7784H27.7964H27.8144H27.8324H27.8504H27.8684H27.8864H27.9044H27.9224H27.9404H27.9584H27.9764H27.9944H28.0124H28.0304H28.0484H28.0664H28.0844H28.1023H28.1203H28.1383H28.1563H28.1743H28.1923H28.2103H28.2283H28.2463H28.2643H28.2823H28.3003H28.3183H28.3363H28.3543H28.3723H28.3903H28.4083H28.4263H28.4443H28.4623H28.4802H28.4982H28.5162H28.5342H28.5522H28.5702H28.5882H28.6062H28.6242H28.6422H28.6602H28.6782H28.6962H28.7142H28.7322H28.7502H28.7682H28.7862H28.8042H28.8222H28.8402H28.8581H28.8761H28.8941H28.9121H28.9301H28.9481H28.9661H28.9841H29.0021H29.0201H29.0381H29.0561H29.0741H29.0921H29.1101H29.1281H29.1461H29.1641H29.1821H29.2001H29.2181H29.2361H29.254H29.272H29.29H29.308H29.326H29.344H29.362H29.38H29.398H29.416H29.434H29.452H29.47H29.488H29.506H29.524H29.542H29.56H29.578H29.596H29.614H29.6319H29.6499H29.6679H29.6859H29.7039H29.7219H29.7399H29.7579H29.7759H29.7939H29.8119H29.8299H29.8479H29.8659H29.8839H29.9019H29.9199H29.9379H29.9559H29.9739H29.9919H30.0098H30.0278H30.0458H30.0638H30.0818H30.0998H30.1178H30.1358H30.1538H30.1718H30.1898H30.2078H30.2258H30.2438H30.2618H30.2798H30.2978H30.3158H30.3338H30.3518H30.3698H30.3878H30.4057H30.4237H30.4417H30.4597H30.4777H30.4957H30.5137H30.5317H30.5497H30.5677H30.5857H30.6037H30.6217H30.6397H30.6577H30.6757H30.6937H30.7117H30.7297H30.7477H30.7657H30.7836H30.8016H30.8196H30.8376H30.8556H30.8736H30.8916H30.9096H30.9276H30.9456H30.9636H30.9816H30.9996H31.0176H31.0356H31.0536H31.0716H31.0896H31.1076H31.1256H31.1436H31.1615H31.1795H31.1975H31.2155H31.2335H31.2515H31.2695H31.2875H31.3055H31.3235H31.3415H31.3595H31.3775H31.3955H31.4135H31.4315H31.4495H31.4675H31.4855H31.5035H31.5215H31.5395H31.5574H31.5754H31.5934H31.6114H31.6294H31.6474H31.6654H31.6834H31.7014H31.7194H31.7374H31.7554H31.7734H31.7914H31.8094H31.8274H31.8454H31.8634H31.8814H31.8994H31.9174H31.9353H31.9533H31.9713H31.9893H32.0073H32.0253H32.0433H32.0613H32.0793H32.0973H32.1153H32.1333H32.1513H32.1693H32.1873H32.2053H32.2233H32.2413H32.2593H32.2773H32.2953H32.3132H32.3312H32.3492H32.3672H32.3852H32.4032H32.4212H32.4392H32.4572H32.4752H32.4932H32.5112H32.5292H32.5472H32.5652H32.5832H32.6012H32.6192H32.6372H32.6552H32.6732H32.6911H32.7091H32.7271H32.7451H32.7631H32.7811H32.7991H32.8171H32.8351H32.8531H32.8711H32.8891H32.9071H32.9251H32.9431H32.9611H32.9791H32.9971H33.0151H33.0331H33.0511H33.0691H33.087H33.105H33.123H33.141H33.159H33.177H33.195H33.213H33.231H33.249H33.267H33.285H33.303H33.321H33.339H33.357H33.375H33.393H33.411H33.429H33.447H33.4649H33.4829H33.5009H33.5189H33.5369H33.5549H33.5729H33.5909H33.6089H33.6269H33.6449H33.6629H33.6809H33.6989H33.7169H33.7349H33.7529H33.7709H33.7889H33.8069C34.083 26.0285 34.3069 26.2524 34.3069 26.5286C34.3069 26.8047 34.083 27.0286 33.8069 27.0286H33.7889H33.7709H33.7529H33.7349H33.7169H33.6989H33.6809H33.6629H33.6449H33.6269H33.6089H33.5909H33.5729H33.5549H33.5369H33.5189H33.5009H33.4829H33.4649H33.447H33.429H33.411H33.393H33.375H33.357H33.339H33.321H33.303H33.285H33.267H33.249H33.231H33.213H33.195H33.177H33.159H33.141H33.123H33.105H33.087H33.0691H33.0511H33.0331H33.0151H32.9971H32.9791H32.9611H32.9431H32.9251H32.9071H32.8891H32.8711H32.8531H32.8351H32.8171H32.7991H32.7811H32.7631H32.7451H32.7271H32.7091H32.6911H32.6732H32.6552H32.6372H32.6192H32.6012H32.5832H32.5652H32.5472H32.5292H32.5112H32.4932H32.4752H32.4572H32.4392H32.4212H32.4032H32.3852H32.3672H32.3492H32.3312H32.3132H32.2953H32.2773H32.2593H32.2413H32.2233H32.2053H32.1873H32.1693H32.1513H32.1333H32.1153H32.0973H32.0793H32.0613H32.0433H32.0253H32.0073H31.9893H31.9713H31.9533H31.9353H31.9174H31.8994H31.8814H31.8634H31.8454H31.8274H31.8094H31.7914H31.7734H31.7554H31.7374H31.7194H31.7014H31.6834H31.6654H31.6474H31.6294H31.6114H31.5934H31.5754H31.5574H31.5395H31.5215H31.5035H31.4855H31.4675H31.4495H31.4315H31.4135H31.3955H31.3775H31.3595H31.3415H31.3235H31.3055H31.2875H31.2695H31.2515H31.2335H31.2155H31.1975H31.1795H31.1615H31.1436H31.1256H31.1076H31.0896H31.0716H31.0536H31.0356H31.0176H30.9996H30.9816H30.9636H30.9456H30.9276H30.9096H30.8916H30.8736H30.8556H30.8376H30.8196H30.8016H30.7836H30.7657H30.7477H30.7297H30.7117H30.6937H30.6757H30.6577H30.6397H30.6217H30.6037H30.5857H30.5677H30.5497H30.5317H30.5137H30.4957H30.4777H30.4597H30.4417H30.4237H30.4057H30.3878H30.3698H30.3518H30.3338H30.3158H30.2978H30.2798H30.2618H30.2438H30.2258H30.2078H30.1898H30.1718H30.1538H30.1358H30.1178H30.0998H30.0818H30.0638H30.0458H30.0278H30.0098H29.9919H29.9739H29.9559H29.9379H29.9199H29.9019H29.8839H29.8659H29.8479H29.8299H29.8119H29.7939H29.7759H29.7579H29.7399H29.7219H29.7039H29.6859H29.6679H29.6499H29.6319H29.614H29.596H29.578H29.56H29.542H29.524H29.506H29.488H29.47H29.452H29.434H29.416H29.398H29.38H29.362H29.344H29.326H29.308H29.29H29.272H29.254H29.2361H29.2181H29.2001H29.1821H29.1641H29.1461H29.1281H29.1101H29.0921H29.0741H29.0561H29.0381H29.0201H29.0021H28.9841H28.9661H28.9481H28.9301H28.9121H28.8941H28.8761H28.8581H28.8402H28.8222H28.8042H28.7862H28.7682H28.7502H28.7322H28.7142H28.6962H28.6782H28.6602H28.6422H28.6242H28.6062H28.5882H28.5702H28.5522H28.5342H28.5162H28.4982H28.4802H28.4623H28.4443H28.4263H28.4083H28.3903H28.3723H28.3543H28.3363H28.3183H28.3003H28.2823H28.2643H28.2463H28.2283H28.2103H28.1923H28.1743H28.1563H28.1383H28.1203H28.1023H28.0844H28.0664H28.0484H28.0304H28.0124H27.9944H27.9764H27.9584H27.9404H27.9224H27.9044H27.8864H27.8684H27.8504H27.8324H27.8144H27.7964H27.7784H27.7604H27.7424H27.7244H27.7064H27.6885H27.6705H27.6525H27.6345H27.6165H27.5985H27.5805H27.5625H27.5445H27.5265H27.5085H27.4905H27.4725H27.4545H27.4365H27.4185H27.4005H27.3825H27.3645H27.3465H27.3285H27.3106H27.2926H27.2746H27.2566H27.2386H27.2206H27.2026H27.1846H27.1666H27.1486H27.1306H27.1126H27.0946H27.0766H27.0586H27.0406H27.0226H27.0046H26.9866H26.9686H26.9506H26.9327H26.9147H26.8967H26.8787H26.8607H26.8427H26.8247H26.8067H26.7887H26.7707H26.7527H26.7347H26.7167H26.6987H26.6807H26.6627H26.6447H26.6267H26.6087H26.5907H26.5727H26.5548H26.5368H26.5188H26.5008H26.4828H26.4648H26.4468H26.4288H26.4108H26.3928H26.3748H26.3568H26.3388H26.3208H26.3028H26.2848H26.2668H26.2488H26.2308H26.2128H26.1948H26.1768H26.1589H26.1409H26.1229H26.1049H26.0869H26.0689H26.0509H26.0329H26.0149H25.9969H25.9789H25.9609H25.9429H25.9249H25.9069H25.8889H25.8709H25.8529H25.8349H25.8169H25.7989H25.781H25.763H25.745H25.727H25.709H25.691H25.673H25.655H25.637H25.619H25.601H25.583H25.565H25.547H25.529H25.511H25.493H25.475H25.457H25.439H25.421H25.4031H25.3851H25.3671H25.3491H25.3311H25.3131H25.2951H25.2771H25.2591H25.2411H25.2231H25.2051H25.1871H25.1691H25.1511H25.1331H25.1151H25.0971H25.0791H25.0611H25.0431H25.0251H25.0072H24.9892H24.9712H24.9532H24.9352H24.9172H24.8992H24.8812H24.8632H24.8452H24.8272H24.8092H24.7912H24.7732H24.7552H24.7372H24.7192H24.7012H24.6832H24.6652H24.6472H24.6293H24.6113H24.5933C24.3171 27.0286 24.0932 26.8047 24.0932 26.5286ZM24.5933 30.0241C24.3171 30.0241 24.0932 30.248 24.0932 30.5242C24.0932 30.8003 24.3171 31.0242 24.5933 31.0242H24.6023H24.6113H24.6203H24.6293H24.6382H24.6472H24.6562H24.6652H24.6742H24.6832H24.6922H24.7012H24.7102H24.7192H24.7282H24.7372H24.7462H24.7552H24.7642H24.7732H24.7822H24.7912H24.8002H24.8092H24.8182H24.8272H24.8362H24.8452H24.8542H24.8632H24.8722H24.8812H24.8902H24.8992H24.9082H24.9172H24.9262H24.9352H24.9442H24.9532H24.9622H24.9712H24.9802H24.9892H24.9982H25.0072H25.0162H25.0251H25.0341H25.0431H25.0521H25.0611H25.0701H25.0791H25.0881H25.0971H25.1061H25.1151H25.1241H25.1331H25.1421H25.1511H25.1601H25.1691H25.1781H25.1871H25.1961H25.2051H25.2141H25.2231H25.2321H25.2411H25.2501H25.2591H25.2681H25.2771H25.2861H25.2951H25.3041H25.3131H25.3221H25.3311H25.3401H25.3491H25.3581H25.3671H25.3761H25.3851H25.3941H25.4031H25.412H25.421H25.43H25.439H25.448H25.457H25.466H25.475H25.484H25.493H25.502H25.511H25.52H25.529H25.538H25.547H25.556H25.565H25.574H25.583H25.592H25.601H25.61H25.619H25.628H25.637H25.646H25.655H25.664H25.673H25.682H25.691H25.7H25.709H25.718H25.727H25.736H25.745H25.754H25.763H25.772H25.781H25.7899H25.7989H25.8079H25.8169H25.8259H25.8349H25.8439H25.8529H25.8619H25.8709H25.8799H25.8889H25.8979H25.9069H25.9159H25.9249H25.9339H25.9429H25.9519H25.9609H25.9699H25.9789H25.9879H25.9969H26.0059H26.0149H26.0239H26.0329H26.0419H26.0509H26.0599H26.0689H26.0779H26.0869H26.0959H26.1049H26.1139H26.1229H26.1319H26.1409H26.1499H26.1589H26.1679H26.1768H26.1858H26.1948H26.2038H26.2128H26.2218H26.2308H26.2398H26.2488H26.2578H26.2668H26.2758H26.2848H26.2938H26.3028H26.3118H26.3208H26.3298H26.3388H26.3478H26.3568H26.3658H26.3748H26.3838H26.3928H26.4018H26.4108H26.4198H26.4288H26.4378H26.4468H26.4558H26.4648H26.4738H26.4828H26.4918H26.5008H26.5098H26.5188H26.5278H26.5368H26.5458H26.5548H26.5637H26.5727H26.5817H26.5907H26.5997H26.6087H26.6177H26.6267H26.6357H26.6447H26.6537H26.6627H26.6717H26.6807H26.6897H26.6987H26.7077H26.7167H26.7257H26.7347H26.7437H26.7527H26.7617H26.7707H26.7797H26.7887H26.7977H26.8067H26.8157H26.8247H26.8337H26.8427H26.8517H26.8607H26.8697H26.8787H26.8877H26.8967H26.9057H26.9147H26.9237H26.9327H26.9416H26.9506H26.9596H26.9686H26.9776H26.9866H26.9956H27.0046H27.0136H27.0226H27.0316H27.0406H27.0496H27.0586H27.0676H27.0766H27.0856H27.0946H27.1036H27.1126H27.1216H27.1306H27.1396H27.1486H27.1576H27.1666H27.1756H27.1846H27.1936H27.2026H27.2116H27.2206H27.2296H27.2386H27.2476H27.2566H27.2656H27.2746H27.2836H27.2926H27.3016H27.3106H27.3196H27.3285H27.3375H27.3465H27.3555H27.3645H27.3735H27.3825H27.3915H27.4005H27.4095H27.4185H27.4275H27.4365H27.4455H27.4545H27.4635H27.4725H27.4815H27.4905H27.4995H27.5085H27.5175H27.5265H27.5355H27.5445H27.5535H27.5625H27.5715H27.5805H27.5895H27.5985H27.6075H27.6165H27.6255H27.6345H27.6435H27.6525H27.6615H27.6705H27.6795H27.6885H27.6975H27.7064H27.7154H27.7244H27.7334H27.7424H27.7514H27.7604H27.7694H27.7784H27.7874H27.7964H27.8054H27.8144H27.8234H27.8324H27.8414H27.8504H27.8594H27.8684H27.8774H27.8864H27.8954H27.9044H27.9134H27.9224H27.9314H27.9404H27.9494H27.9584H27.9674H27.9764H27.9854H27.9944H28.0034H28.0124H28.0214H28.0304H28.0394H28.0484H28.0574H28.0664H28.0754H28.0844H28.0933H28.1023H28.1113H28.1203H28.1293H28.1383H28.1473H28.1563H28.1653H28.1743H28.1833H28.1923H28.2013H28.2103H28.2193H28.2283H28.2373H28.2463H28.2553H28.2643H28.2733H28.2823H28.2913H28.3003H28.3093H28.3183H28.3273H28.3363H28.3453H28.3543H28.3633H28.3723H28.3813H28.3903H28.3993H28.4083H28.4173H28.4263H28.4353H28.4443H28.4533H28.4623H28.4713H28.4802H28.4892H28.4982H28.5072H28.5162H28.5252H28.5342H28.5432H28.5522H28.5612H28.5702H28.5792H28.5882H28.5972H28.6062H28.6152H28.6242H28.6332H28.6422H28.6512H28.6602H28.6692H28.6782H28.6872H28.6962H28.7052H28.7142H28.7232H28.7322H28.7412H28.7502H28.7592H28.7682H28.7772H28.7862H28.7952H28.8042H28.8132H28.8222H28.8312H28.8402H28.8492H28.8581H28.8671H28.8761H28.8851H28.8941H28.9031H28.9121H28.9211H28.9301H28.9391H28.9481H28.9571H28.9661H28.9751H28.9841H28.9931H29.0021H29.0111H29.0201H29.0291H29.0381H29.0471H29.0561H29.0651H29.0741H29.0831H29.0921H29.1011H29.1101H29.1191H29.1281H29.1371H29.1461H29.1551H29.1641H29.1731H29.1821H29.1911H29.2001C29.4762 31.0242 29.7001 30.8003 29.7001 30.5242C29.7001 30.248 29.4762 30.0241 29.2001 30.0241H29.1911H29.1821H29.1731H29.1641H29.1551H29.1461H29.1371H29.1281H29.1191H29.1101H29.1011H29.0921H29.0831H29.0741H29.0651H29.0561H29.0471H29.0381H29.0291H29.0201H29.0111H29.0021H28.9931H28.9841H28.9751H28.9661H28.9571H28.9481H28.9391H28.9301H28.9211H28.9121H28.9031H28.8941H28.8851H28.8761H28.8671H28.8581H28.8492H28.8402H28.8312H28.8222H28.8132H28.8042H28.7952H28.7862H28.7772H28.7682H28.7592H28.7502H28.7412H28.7322H28.7232H28.7142H28.7052H28.6962H28.6872H28.6782H28.6692H28.6602H28.6512H28.6422H28.6332H28.6242H28.6152H28.6062H28.5972H28.5882H28.5792H28.5702H28.5612H28.5522H28.5432H28.5342H28.5252H28.5162H28.5072H28.4982H28.4892H28.4802H28.4713H28.4623H28.4533H28.4443H28.4353H28.4263H28.4173H28.4083H28.3993H28.3903H28.3813H28.3723H28.3633H28.3543H28.3453H28.3363H28.3273H28.3183H28.3093H28.3003H28.2913H28.2823H28.2733H28.2643H28.2553H28.2463H28.2373H28.2283H28.2193H28.2103H28.2013H28.1923H28.1833H28.1743H28.1653H28.1563H28.1473H28.1383H28.1293H28.1203H28.1113H28.1023H28.0933H28.0844H28.0754H28.0664H28.0574H28.0484H28.0394H28.0304H28.0214H28.0124H28.0034H27.9944H27.9854H27.9764H27.9674H27.9584H27.9494H27.9404H27.9314H27.9224H27.9134H27.9044H27.8954H27.8864H27.8774H27.8684H27.8594H27.8504H27.8414H27.8324H27.8234H27.8144H27.8054H27.7964H27.7874H27.7784H27.7694H27.7604H27.7514H27.7424H27.7334H27.7244H27.7154H27.7064H27.6975H27.6885H27.6795H27.6705H27.6615H27.6525H27.6435H27.6345H27.6255H27.6165H27.6075H27.5985H27.5895H27.5805H27.5715H27.5625H27.5535H27.5445H27.5355H27.5265H27.5175H27.5085H27.4995H27.4905H27.4815H27.4725H27.4635H27.4545H27.4455H27.4365H27.4275H27.4185H27.4095H27.4005H27.3915H27.3825H27.3735H27.3645H27.3555H27.3465H27.3375H27.3285H27.3196H27.3106H27.3016H27.2926H27.2836H27.2746H27.2656H27.2566H27.2476H27.2386H27.2296H27.2206H27.2116H27.2026H27.1936H27.1846H27.1756H27.1666H27.1576H27.1486H27.1396H27.1306H27.1216H27.1126H27.1036H27.0946H27.0856H27.0766H27.0676H27.0586H27.0496H27.0406H27.0316H27.0226H27.0136H27.0046H26.9956H26.9866H26.9776H26.9686H26.9596H26.9506H26.9416H26.9327H26.9237H26.9147H26.9057H26.8967H26.8877H26.8787H26.8697H26.8607H26.8517H26.8427H26.8337H26.8247H26.8157H26.8067H26.7977H26.7887H26.7797H26.7707H26.7617H26.7527H26.7437H26.7347H26.7257H26.7167H26.7077H26.6987H26.6897H26.6807H26.6717H26.6627H26.6537H26.6447H26.6357H26.6267H26.6177H26.6087H26.5997H26.5907H26.5817H26.5727H26.5637H26.5548H26.5458H26.5368H26.5278H26.5188H26.5098H26.5008H26.4918H26.4828H26.4738H26.4648H26.4558H26.4468H26.4378H26.4288H26.4198H26.4108H26.4018H26.3928H26.3838H26.3748H26.3658H26.3568H26.3478H26.3388H26.3298H26.3208H26.3118H26.3028H26.2938H26.2848H26.2758H26.2668H26.2578H26.2488H26.2398H26.2308H26.2218H26.2128H26.2038H26.1948H26.1858H26.1768H26.1679H26.1589H26.1499H26.1409H26.1319H26.1229H26.1139H26.1049H26.0959H26.0869H26.0779H26.0689H26.0599H26.0509H26.0419H26.0329H26.0239H26.0149H26.0059H25.9969H25.9879H25.9789H25.9699H25.9609H25.9519H25.9429H25.9339H25.9249H25.9159H25.9069H25.8979H25.8889H25.8799H25.8709H25.8619H25.8529H25.8439H25.8349H25.8259H25.8169H25.8079H25.7989H25.7899H25.781H25.772H25.763H25.754H25.745H25.736H25.727H25.718H25.709H25.7H25.691H25.682H25.673H25.664H25.655H25.646H25.637H25.628H25.619H25.61H25.601H25.592H25.583H25.574H25.565H25.556H25.547H25.538H25.529H25.52H25.511H25.502H25.493H25.484H25.475H25.466H25.457H25.448H25.439H25.43H25.421H25.412H25.4031H25.3941H25.3851H25.3761H25.3671H25.3581H25.3491H25.3401H25.3311H25.3221H25.3131H25.3041H25.2951H25.2861H25.2771H25.2681H25.2591H25.2501H25.2411H25.2321H25.2231H25.2141H25.2051H25.1961H25.1871H25.1781H25.1691H25.1601H25.1511H25.1421H25.1331H25.1241H25.1151H25.1061H25.0971H25.0881H25.0791H25.0701H25.0611H25.0521H25.0431H25.0341H25.0251H25.0162H25.0072H24.9982H24.9892H24.9802H24.9712H24.9622H24.9532H24.9442H24.9352H24.9262H24.9172H24.9082H24.8992H24.8902H24.8812H24.8722H24.8632H24.8542H24.8452H24.8362H24.8272H24.8182H24.8092H24.8002H24.7912H24.7822H24.7732H24.7642H24.7552H24.7462H24.7372H24.7282H24.7192H24.7102H24.7012H24.6922H24.6832H24.6742H24.6652H24.6562H24.6472H24.6382H24.6293H24.6203H24.6113H24.6023H24.5933Z" fill="#F6175A"/>
</svg>
