<svg width="65" height="36" viewBox="0 0 65 36" fill="none" xmlns="http://www.w3.org/2000/svg">
<rect x="0.5" y="0.5" width="64" height="35" rx="3.5" fill="white" stroke="#E1E1E1"/>
<path fill-rule="evenodd" clip-rule="evenodd" d="M40.636 7.59985L41.736 8.60986L27.811 16.6099L21.069 12.71L21.699 11.45L27.811 14.9399L40.633 7.59985H40.636ZM37.836 6L27.818 11.76L23.375 9.20996L22.462 10.3101L27.818 13.3699L39.318 6.75L37.837 6H37.836ZM42.719 9.6499L27.819 18.22L20.572 14.0601L20.226 15.45L27.819 19.79L43.54 10.75L42.719 9.6499ZM44.988 13.71C45.4513 15.0271 45.6856 16.4139 45.681 17.8101C45.6823 19.2256 45.4481 20.6313 44.988 21.97L44.673 22.8198C44.025 24.3466 43.0951 25.7376 41.932 26.9199C40.7535 28.0775 39.3609 28.9945 37.832 29.6199C36.2521 30.3089 34.5466 30.6631 32.823 30.6599C31.099 30.6672 29.3926 30.3129 27.814 29.6199C26.3045 28.9781 24.9267 28.0627 23.75 26.9199C22.5731 25.7488 21.6413 24.355 21.009 22.8198C20.3429 21.2335 19.9999 19.5305 20 17.8101V16.96L27.814 21.3999L44.291 11.95L44.988 13.71Z" fill="#1FA94D"/>
</svg>
