<svg width="65" height="36" viewBox="0 0 65 36" fill="none" xmlns="http://www.w3.org/2000/svg">
<rect x="0.5" y="0.5" width="64" height="35" rx="3.5" fill="white" stroke="#E1E1E1"/>
<path d="M35.076 12.9521L32.209 19.1641H31.918V11.6001H27.844V24.4011H31.302C32.209 24.4011 33.034 23.8731 33.415 23.0481L36.282 16.8371H36.573V24.4011H40.646V11.6001H37.189C36.281 11.6001 35.456 12.1281 35.076 12.9521Z" fill="#1FAA4D"/>
<path d="M19.795 13.2821L18.099 19.1651H17.808L16.111 13.2821C15.824 12.2861 14.912 11.6001 13.875 11.6001H9.80798V24.4011H13.88V16.8361H14.172L16.499 24.4011H19.408L21.735 16.8361H22.026V24.4011H26.099V11.6001H22.032C20.995 11.6001 20.083 12.2861 19.795 13.2821Z" fill="#1FAA4D"/>
<path d="M42.391 17.4189V24.4009H46.456V20.3279H50.828C52.727 20.3279 54.338 19.1129 54.938 17.4189H42.391Z" fill="#1FAA4D"/>
<path d="M50.828 11.6001H41.809C42.357 14.5791 44.964 16.8371 48.1 16.8371H55.104C55.161 16.5541 55.192 16.2631 55.192 15.9641C55.192 13.5541 53.238 11.6001 50.828 11.6001Z" fill="url(#paint0_linear)"/>
<defs>
<linearGradient id="paint0_linear" x1="41.809" y1="14.2187" x2="55.1917" y2="14.2187" gradientUnits="userSpaceOnUse">
<stop stop-color="#00A7E2"/>
<stop offset="0.2" stop-color="#00A7E2"/>
<stop offset="1" stop-color="#007EC3"/>
</linearGradient>
</defs>
</svg>
