<svg width="65" height="36" viewBox="0 0 65 36" fill="none" xmlns="http://www.w3.org/2000/svg">
<rect x="0.5" y="0.5" width="64" height="35" rx="3.5" fill="white" stroke="#E1E1E1"/>
<path d="M49.834 18.0001C49.834 23.7231 45.211 28.4011 39.433 28.4011C33.711 28.4011 29.033 23.7231 29.033 18.0001C29.033 12.2771 33.655 7.6001 39.379 7.6001C45.211 7.6001 49.834 12.2771 49.834 18.0001Z" fill="#FFB600"/>
<path d="M25.456 7.6001C19.789 7.6551 15.166 12.2771 15.166 18.0001C15.166 23.7231 19.789 28.4011 25.567 28.4011C28.263 28.4011 30.684 27.3551 32.555 25.7041C32.94 25.3741 33.27 24.9881 33.601 24.6041H31.455C31.179 24.2741 30.904 23.8881 30.684 23.5581H34.371C34.591 23.2281 34.811 22.8431 34.976 22.4581H30.079C29.914 22.1271 29.749 21.7421 29.639 21.3571H35.361C35.691 20.3111 35.912 19.2111 35.912 18.0561C35.912 17.2851 35.802 16.5701 35.691 15.8541H29.309C29.364 15.4691 29.473 15.1391 29.584 14.7531H35.306C35.197 14.3681 35.031 13.9831 34.866 13.6531H30.024C30.189 13.2681 30.409 12.9371 30.629 12.5531H34.316C34.096 12.1671 33.821 11.7821 33.491 11.4521H31.455C31.785 11.0671 32.115 10.7371 32.5 10.4071C30.55 8.5751 28.053 7.6001 25.456 7.6001Z" fill="#FF5050"/>
<path d="M29.253 20.6421L29.419 19.7061C29.364 19.7061 29.253 19.7611 29.143 19.7611C28.758 19.7611 28.703 19.5411 28.758 19.4311L29.089 17.5051H29.694L29.858 16.4601H29.309L29.419 15.7991H28.318C28.318 15.7991 27.658 19.4311 27.658 19.8711C27.658 20.5311 28.043 20.8071 28.538 20.8071C28.868 20.8071 29.143 20.6971 29.253 20.6421Z" fill="white"/>
<path d="M29.639 18.8809C29.639 20.4219 30.684 20.8069 31.565 20.8069C32.39 20.8069 32.72 20.6419 32.72 20.6419L32.94 19.5959C32.94 19.5959 32.335 19.8709 31.785 19.8709C30.574 19.8709 30.794 18.9909 30.794 18.9909H33.05C33.05 18.9909 33.215 18.2749 33.215 17.9999C33.215 17.2849 32.83 16.4039 31.619 16.4039C30.464 16.2939 29.639 17.5049 29.639 18.8809ZM31.565 17.2849C32.17 17.2849 32.06 17.9999 32.06 18.0559H30.849C30.849 17.9999 30.959 17.2849 31.565 17.2849Z" fill="white"/>
<path d="M38.553 20.642L38.773 19.431C38.773 19.431 38.223 19.706 37.838 19.706C37.067 19.706 36.737 19.101 36.737 18.44C36.737 17.12 37.398 16.404 38.168 16.404C38.718 16.404 39.158 16.734 39.158 16.734L39.324 15.579C39.324 15.579 38.663 15.304 38.058 15.304C36.792 15.304 35.527 16.404 35.527 18.496C35.527 19.871 36.187 20.807 37.508 20.807C37.948 20.807 38.553 20.642 38.553 20.642Z" fill="white"/>
<path d="M23.2 16.2939C22.43 16.2939 21.879 16.5139 21.879 16.5139L21.715 17.4499C21.715 17.4499 22.21 17.2299 22.925 17.2299C23.31 17.2299 23.64 17.2849 23.64 17.6149C23.64 17.8349 23.586 17.8899 23.586 17.8899H23.09C22.155 17.8899 21.11 18.2749 21.11 19.5409C21.11 20.5309 21.77 20.7519 22.155 20.7519C22.925 20.7519 23.255 20.2559 23.31 20.2559L23.255 20.6969H24.246L24.686 17.6699C24.686 16.3499 23.586 16.2939 23.2 16.2939ZM23.42 18.7709C23.42 18.9359 23.31 19.8159 22.65 19.8159C22.32 19.8159 22.21 19.5409 22.21 19.3759C22.21 19.1009 22.375 18.7159 23.2 18.7159C23.365 18.7709 23.42 18.7709 23.42 18.7709Z" fill="white"/>
<path d="M25.7319 20.752C26.0069 20.752 27.3819 20.807 27.3819 19.321C27.3819 17.945 26.0619 18.22 26.0619 17.67C26.0619 17.395 26.2819 17.285 26.6669 17.285C26.8319 17.285 27.4369 17.34 27.4369 17.34L27.6029 16.35C27.6029 16.35 27.2169 16.239 26.5569 16.239C25.7319 16.239 24.9059 16.57 24.9059 17.67C24.9059 18.936 26.2819 18.826 26.2819 19.321C26.2819 19.651 25.8969 19.706 25.6219 19.706C25.1259 19.706 24.6309 19.541 24.6309 19.541L24.4659 20.531C24.5209 20.642 24.7959 20.752 25.7319 20.752Z" fill="white"/>
<path d="M47.687 15.4141L47.468 16.9001C47.468 16.9001 47.027 16.3501 46.422 16.3501C45.432 16.3501 44.551 17.5601 44.551 18.9911C44.551 19.8711 44.991 20.8071 45.927 20.8071C46.587 20.8071 46.973 20.3661 46.973 20.3661L46.917 20.7521H48.018L48.843 15.4691L47.687 15.4141ZM47.193 18.3301C47.193 18.9361 46.917 19.7061 46.312 19.7061C45.927 19.7061 45.707 19.3761 45.707 18.8261C45.707 17.9451 46.092 17.3951 46.587 17.3951C46.973 17.3951 47.193 17.6701 47.193 18.3301Z" fill="white"/>
<path d="M17.202 20.6971L17.863 16.7341L17.973 20.6971H18.743L20.174 16.7341L19.569 20.6971H20.724L21.605 15.4141H19.789L18.688 18.6611L18.633 15.4141H17.037L16.157 20.6971H17.202Z" fill="white"/>
<path d="M34.261 20.6971C34.591 18.8811 34.646 17.3951 35.417 17.6701C35.527 16.9551 35.691 16.6801 35.802 16.4041H35.582C35.086 16.4041 34.701 17.0651 34.701 17.0651L34.811 16.4601H33.766L33.05 20.7521H34.261V20.6971Z" fill="white"/>
<path d="M41.0839 16.2939C40.3139 16.2939 39.7639 16.5139 39.7639 16.5139L39.5989 17.4499C39.5989 17.4499 40.0939 17.2299 40.8089 17.2299C41.1939 17.2299 41.5239 17.2849 41.5239 17.6149C41.5239 17.8349 41.4699 17.8899 41.4699 17.8899H40.9749C40.0389 17.8899 38.9929 18.2749 38.9929 19.5409C38.9929 20.5309 39.6539 20.7519 40.0389 20.7519C40.8089 20.7519 41.1389 20.2559 41.1939 20.2559L41.1389 20.6969H42.1299L42.5699 17.6699C42.6249 16.3499 41.4699 16.2939 41.0839 16.2939ZM41.3599 18.7709C41.3599 18.9359 41.2489 19.8159 40.5889 19.8159C40.2589 19.8159 40.1489 19.5409 40.1489 19.3759C40.1489 19.1009 40.3139 18.7159 41.1389 18.7159C41.3039 18.7709 41.3039 18.7709 41.3599 18.7709Z" fill="white"/>
<path d="M43.5059 20.6971C43.8359 18.8811 43.8909 17.3951 44.6609 17.6701C44.7709 16.9551 44.9359 16.6801 45.0459 16.4041H44.8259C44.3309 16.4041 43.9459 17.0651 43.9459 17.0651L44.0559 16.4601H43.0109L42.2949 20.7521H43.5059V20.6971Z" fill="white"/>
</svg>
