<svg width="65" height="36" viewBox="0 0 65 36" fill="none" xmlns="http://www.w3.org/2000/svg">
<rect x="0.5" y="0.5" width="64" height="35" rx="3.5" fill="white" stroke="#E1E1E1"/>
<path d="M24.675 24.8739L27.062 11.4429H30.793L28.48 24.8739H24.675Z" fill="#3C58BF"/>
<path d="M41.985 11.5931C41.239 11.2941 40.046 10.9961 38.553 10.9961C34.822 10.9961 32.136 12.8611 32.136 15.5471C32.136 17.5621 34.002 18.6061 35.494 19.2781C36.986 19.9501 37.434 20.3971 37.434 20.9941C37.434 21.8901 36.24 22.3371 35.195 22.3371C33.703 22.3371 32.882 22.1131 31.614 21.5911L31.091 21.3671L30.569 24.4261C31.464 24.7991 33.106 25.1731 34.822 25.1731C38.777 25.1731 41.388 23.3071 41.388 20.4721C41.388 18.9051 40.418 17.7111 38.18 16.7411C36.837 16.0691 36.016 15.6961 36.016 15.0251C36.016 14.4281 36.688 13.8311 38.18 13.8311C39.448 13.8311 40.344 14.0551 41.015 14.3541L41.388 14.5021L41.985 11.5931Z" fill="#3C58BF"/>
<path d="M48.402 11.4429C47.507 11.4429 46.835 11.5179 46.462 12.4129L40.866 24.8739H44.895L45.642 22.6359H50.417L50.864 24.8739H54.446L51.312 11.4429H48.402ZM46.686 20.3969C46.91 19.7249 48.178 16.4429 48.178 16.4429C48.178 16.4429 48.477 15.6219 48.701 15.0989L48.924 16.3679C48.924 16.3679 49.671 19.7249 49.82 20.4719H46.686V20.3969Z" fill="#3C58BF"/>
<path d="M17.81 20.8451L17.437 18.9051C16.766 16.6671 14.602 14.2041 12.214 13.0101L15.572 24.9491H19.601L25.645 11.5181H21.616L17.81 20.8451Z" fill="#3C58BF"/>
<path d="M7.43896 11.4429L8.11096 11.5929C12.886 12.7119 16.169 15.5469 17.437 18.9049L16.094 12.5629C15.87 11.6669 15.199 11.4429 14.378 11.4429H7.43896Z" fill="#FFBC00"/>
</svg>
