<svg width="60" height="60" viewBox="0 0 60 60" fill="none" xmlns="http://www.w3.org/2000/svg">
<path d="M59.4749 30C59.4749 46.2786 46.2785 59.475 29.9999 59.475C13.7213 59.475 0.524902 46.2786 0.524902 30C0.524902 13.7214 13.7213 0.524994 29.9999 0.524994C46.2785 0.524994 59.4749 13.7214 59.4749 30Z" stroke="#E6E6E6"/>
<path fill-rule="evenodd" clip-rule="evenodd" d="M37.9699 13.003H22.0809C21.5349 13.003 21.0389 13.207 20.6809 13.537C20.3219 13.866 20.0999 14.325 20.0999 14.834V45.166C20.0999 45.672 20.3239 46.132 20.6849 46.463C21.0409 46.793 21.5359 46.997 22.0809 46.997H30.5149C30.9509 47.368 31.4239 47.696 31.9289 47.975H22.0809C20.3959 47.975 19.0259 46.714 19.0259 45.166V14.834C19.0259 13.285 20.3959 12.025 22.0809 12.025H37.9699C39.6549 12.025 41.0259 13.285 41.0259 14.834V33.652C40.6859 33.405 40.3269 33.181 39.9509 32.985V14.834C39.9509 14.325 39.7289 13.866 39.3699 13.537C39.0119 13.207 38.5169 13.003 37.9699 13.003ZM20.0999 17.026H39.9509V18.026H20.0999V17.026ZM20.0999 41.026H27.5409C27.5609 41.365 27.5999 41.699 27.6579 42.026H20.0999V41.026ZM27.5259 45.026C27.2499 45.026 27.0249 44.802 27.0249 44.526C27.0249 44.25 27.2499 44.026 27.5259 44.026H28.2779C28.4349 44.373 28.6139 44.706 28.8139 45.026H27.5259Z" fill="#F6175A"/>
<path d="M36 34C37.9406 34 39.6955 34.7896 40.9631 36.0653C42.2208 37.3301 43 39.0749 43 41.0005C43 42.9251 42.2208 44.6709 40.9631 45.9357C39.6955 47.2104 37.9406 48 36 48C34.0594 48 32.3045 47.2104 31.0369 45.9357C29.7782 44.6709 29 42.9251 29 41.0005C29 39.0759 29.7782 37.3301 31.0369 36.0653C32.3045 34.7896 34.0594 34 36 34ZM40.3169 36.6034C39.2102 35.4903 37.6835 34.8016 36 34.8016C34.3165 34.8016 32.7889 35.4903 31.6831 36.6034C30.5654 37.7253 29.8745 39.2806 29.8745 41.0005C29.8745 42.7194 30.5664 44.2747 31.6831 45.3976C32.7889 46.5107 34.3165 47.1994 36 47.1994C37.6835 47.1994 39.2102 46.5107 40.3169 45.3976C41.4336 44.2747 42.1245 42.7194 42.1245 41.0005C42.1245 39.2806 41.4336 37.7253 40.3169 36.6034Z" fill="#F6175A"/>
<path d="M34.1719 39.173L36.5259 36.819V44.026H35.5259V39.233L34.8789 39.879L34.1719 39.173Z" fill="#F6175A"/>
</svg>
