<svg width="60" height="60" viewBox="0 0 60 60" fill="none" xmlns="http://www.w3.org/2000/svg">
<path d="M59.4749 30C59.4749 46.2786 46.2785 59.475 29.9999 59.475C13.7213 59.475 0.524902 46.2786 0.524902 30C0.524902 13.7214 13.7213 0.525002 29.9999 0.525002C46.2785 0.525002 59.4749 13.7214 59.4749 30Z" stroke="#E6E6E6"/>
<path fill-rule="evenodd" clip-rule="evenodd" d="M45.2089 43.026H14.7909C13.2629 43.026 12.0249 41.801 12.0249 40.291V19.777C12.0249 18.266 13.2629 17.041 14.7909 17.041H45.2089C46.7369 17.041 47.9749 18.266 47.9749 19.777V40.291C47.9749 41.801 46.7369 43.026 45.2089 43.026ZM14.7909 42.022H45.2089C45.6949 42.022 46.1349 41.828 46.4519 41.515C46.7659 41.205 46.9609 40.771 46.9609 40.291V19.777C46.9609 19.296 46.7659 18.863 46.4519 18.552C46.1349 18.239 45.6949 18.045 45.2089 18.045H14.7909C14.3049 18.045 13.8649 18.239 13.5479 18.552C13.2339 18.863 13.0389 19.296 13.0389 19.777V40.291C13.0389 40.771 13.2339 41.205 13.5479 41.515C13.8649 41.828 14.3039 42.022 14.7909 42.022Z" fill="#F6175A"/>
<path d="M22.2917 26.025H18.8957V24.068H23.2627V25.047C23.2627 25.587 22.8277 26.025 22.2917 26.025ZM17.9257 26.025H17.4397C16.9037 26.025 16.4697 25.587 16.4697 25.047V22.112C16.4697 21.572 16.9037 21.134 17.4397 21.134H17.9257V26.025ZM18.8957 21.134H22.2917C22.8277 21.134 23.2627 21.572 23.2627 22.112V23.09H18.8957V21.134Z" fill="#F6175A"/>
<path d="M18.7629 34.026H17.1199C16.5159 34.026 16.0249 33.578 16.0249 33.026C16.0249 32.473 16.5159 32.025 17.1199 32.025H18.7629C19.3679 32.025 19.8579 32.473 19.8579 33.026C19.8579 33.578 19.3679 34.026 18.7629 34.026Z" fill="#F6175A"/>
<path d="M27.0621 34.075H25.4971C24.9211 34.075 24.4531 33.648 24.4531 33.122C24.4531 32.595 24.9211 32.169 25.4971 32.169H27.0621C27.6381 32.169 28.1051 32.595 28.1051 33.122C28.1051 33.648 27.6381 34.075 27.0621 34.075Z" fill="#F6175A"/>
<path d="M34.8469 34.026H33.2039C32.5999 34.026 32.1089 33.578 32.1089 33.026C32.1089 32.473 32.5999 32.025 33.2039 32.025H34.8469C35.4519 32.025 35.9419 32.473 35.9419 33.026C35.9419 33.578 35.4519 34.026 34.8469 34.026Z" fill="#F6175A"/>
<path d="M42.8151 33.947H41.2371C40.6561 33.947 40.1851 33.517 40.1851 32.986C40.1851 32.456 40.6561 32.025 41.2371 32.025H42.8151C43.3961 32.025 43.8671 32.456 43.8671 32.986C43.8671 33.517 43.3961 33.947 42.8151 33.947Z" fill="#F6175A"/>
<path d="M28.0377 39.026H17.0787C16.7417 39.026 16.4697 38.802 16.4697 38.526C16.4697 38.249 16.7417 38.026 17.0787 38.026H28.0377C28.3747 38.026 28.6467 38.249 28.6467 38.526C28.6467 38.802 28.3747 39.026 28.0377 39.026Z" fill="#F6175A"/>
<path d="M35.412 39.026H30.677C30.302 39.026 30 38.802 30 38.526C30 38.249 30.302 38.026 30.677 38.026H35.412C35.786 38.026 36.089 38.249 36.089 38.526C36.089 38.802 35.786 39.026 35.412 39.026Z" fill="#F6175A"/>
</svg>
